<?xml version="1.0" encoding="UTF-8"?>
<svg version="1.1" xmlns="http://www.w3.org/2000/svg" width="1080" height="1080">
<path d="M0 0 C356.4 0 712.8 0 1080 0 C1080 356.4 1080 712.8 1080 1080 C723.6 1080 367.2 1080 0 1080 C0 723.6 0 367.2 0 0 Z " fill="#F8FCFE" transform="translate(0,0)"/>
<path d="M0 0 C7.74081079 4.18961409 12.41701106 9.82685891 17.4375 16.875 C18.6740449 18.58364769 19.91102373 20.29198144 21.1484375 22 C21.74366211 22.82628906 22.33888672 23.65257812 22.95214844 24.50390625 C25.11697197 27.49143855 27.3341813 30.43453821 29.5625 33.375 C32.6501766 37.47873106 35.62821035 41.6398033 38.5546875 45.859375 C45.81748455 56.21913834 53.27481671 66.44518957 60.91796875 76.52734375 C62.20578867 78.2513132 63.43135648 80.02203471 64.625 81.8125 C66.11 82.3075 66.11 82.3075 67.625 82.8125 C67.95951172 82.01585937 67.95951172 82.01585937 68.30078125 81.203125 C70.08166908 77.98807086 72.41841987 75.32798543 74.8125 72.5625 C75.31080322 71.98185791 75.80910645 71.40121582 76.32250977 70.80297852 C77.31282378 69.65047589 78.30488313 68.4994703 79.29882812 67.35009766 C80.36914668 66.1091429 81.42851472 64.85874828 82.484375 63.60546875 C90.57819395 54.08922123 99.51947671 45.17632592 109.625 37.8125 C110.18058594 37.40757324 110.73617187 37.00264648 111.30859375 36.58544922 C119.67855471 30.55772733 127.74349871 26.01371985 137.625 22.8125 C138.27170654 22.55645996 138.91841309 22.30041992 139.5847168 22.03662109 C145.9675042 19.61856117 151.8994431 19.27150806 158.6875 19.3125 C159.78787598 19.31822021 160.88825195 19.32394043 162.02197266 19.32983398 C178.14149688 19.68046374 191.39197783 24.8684437 203.3125 35.9375 C214.10795002 47.31335056 220.42432079 60.85975401 220.1875 76.5625 C220.17509277 77.61091064 220.16268555 78.65932129 220.14990234 79.73950195 C219.72371505 94.53868477 214.95641342 106.21039452 204.625 116.8125 C201.45725151 119.30178652 198.287119 121.15009072 194.625 122.8125 C193.92375 123.14765625 193.2225 123.4828125 192.5 123.828125 C187.76136792 125.86425597 183.76105621 126.25526347 178.625 125.8125 C177.965 125.1525 177.305 124.4925 176.625 123.8125 C177.53378906 123.70035156 177.53378906 123.70035156 178.4609375 123.5859375 C187.8206717 122.11717921 195.50625848 118.15085421 201.3828125 110.59765625 C209.15268329 99.43152118 209.72859312 88.01147375 208.625 74.8125 C206.43468035 63.76134175 199.52168678 55.40947718 190.625 48.8125 C180.03941426 42.20165754 167.33156509 41.04507733 155.23828125 43.5 C131.56587499 50.77449104 117.40346893 73.80160566 103.625 92.8125 C103.05281738 93.60060059 102.48063477 94.38870117 101.89111328 95.20068359 C96.43781771 102.71561002 91.01684351 110.25337914 85.625 117.8125 C81.69585332 123.31850199 77.76050972 128.82000396 73.8125 134.3125 C73.27302734 135.06660156 72.73355469 135.82070313 72.17773438 136.59765625 C69.1449295 140.80967593 66.11368576 144.96459529 62.625 148.8125 C61.965 148.8125 61.305 148.8125 60.625 148.8125 C59.3190918 147.35400391 59.3190918 147.35400391 57.82421875 145.2890625 C57.26573242 144.52424561 56.70724609 143.75942871 56.13183594 142.97143555 C55.53145508 142.13523682 54.93107422 141.29903809 54.3125 140.4375 C53.69020508 139.5813208 53.06791016 138.7251416 52.42675781 137.84301758 C50.48665645 135.17059419 48.55555321 132.49182608 46.625 129.8125 C45.47059575 128.21965792 44.31567172 126.62719239 43.16015625 125.03515625 C40.46206246 121.31379837 37.77419037 117.58522661 35.09179688 113.85253906 C33.74590884 111.9806615 32.39676251 110.11118152 31.046875 108.2421875 C26.20374833 101.51744327 21.48428327 94.71568592 16.8125 87.87109375 C15.9162793 86.55957336 15.9162793 86.55957336 15.00195312 85.22155762 C13.54244246 83.08556376 12.08347019 80.94920437 10.625 78.8125 C10.62261165 79.39964846 10.62022329 79.98679691 10.61776257 80.59173775 C10.55858389 94.88928585 10.4830155 109.18667816 10.38928509 123.48404121 C10.34435113 130.39819946 10.30493102 137.31230647 10.27856445 144.2265625 C10.25310595 150.89860783 10.21218519 157.57039436 10.16181374 164.24230576 C10.14512268 166.78837117 10.13362239 169.33447605 10.12738609 171.88058853 C10.11776972 175.44553822 10.08973836 179.0099014 10.05737305 182.57470703 C10.05880814 183.62847031 10.06024323 184.68223358 10.0617218 185.76792908 C9.97820911 192.26793339 9.30199655 196.87788453 4.7578125 201.859375 C4.09523438 202.42140625 3.43265625 202.9834375 2.75 203.5625 C2.09257812 204.13484375 1.43515625 204.7071875 0.7578125 205.296875 C-5.11056637 209.4670783 -11.39213546 209.83157287 -18.375 208.8125 C-26.16497448 205.36693436 -31.04584721 199.54197254 -34.375 191.8125 C-34.75531673 188.3479023 -34.75531673 188.3479023 -34.76268005 184.46316528 C-34.76806559 183.74497805 -34.77345113 183.02679081 -34.77899987 182.28684032 C-34.79325302 179.89173375 -34.78618248 177.49718192 -34.77905273 175.10205078 C-34.78475775 173.38017331 -34.79172252 171.65829962 -34.79985046 169.93643188 C-34.81778379 165.26692286 -34.81661301 160.59760175 -34.81090808 155.92806864 C-34.80781608 152.02654255 -34.8139089 148.12505255 -34.81994683 144.2235316 C-34.83399139 135.0169918 -34.83243169 125.81054479 -34.82104492 116.60400391 C-34.8095671 107.11430124 -34.82363389 97.62488129 -34.8504414 88.13521588 C-34.87261322 79.98045239 -34.87923233 71.82577754 -34.87336498 63.67098606 C-34.86999735 58.80373228 -34.87239747 53.93665967 -34.88961601 49.0694313 C-34.90510639 44.49089448 -34.90110642 39.91277565 -34.88231087 35.33425522 C-34.87863059 33.65732655 -34.88171706 31.98036676 -34.89219666 30.3034668 C-34.95620385 19.21133736 -34.23971218 11.41452895 -26.375 2.8125 C-18.922074 -3.67875813 -8.75774976 -4.21325934 0 0 Z " fill="#E1442D" transform="translate(376.375,350.1875)"/>
<path d="M0 0 C1.73320999 -0.01248528 1.73320999 -0.01248528 3.50143433 -0.02522278 C7.32390728 -0.04932204 11.14620909 -0.05809983 14.96875 -0.06469727 C16.96601841 -0.07140031 18.96328683 -0.0781059 20.96055412 -0.08513218 C27.25268104 -0.10659211 33.54475409 -0.11593415 39.83691406 -0.11914062 C46.27040176 -0.12275089 52.70340503 -0.15246318 59.13674545 -0.19454521 C64.69811442 -0.22961298 70.25932621 -0.24469545 75.8208046 -0.24538666 C79.12482388 -0.24616884 82.42825054 -0.25688524 85.73217773 -0.28338432 C116.10172211 -0.50734397 144.4049952 5.21450469 167.46875 26.30639648 C168.27675049 27.042854 168.27675049 27.042854 169.10107422 27.79418945 C177.79310677 35.81483742 184.68416017 44.00084081 190.46875 54.30639648 C190.81099609 54.88486328 191.15324219 55.46333008 191.50585938 56.05932617 C202.18918717 74.22900093 207.21435304 95.34504464 205.46875 116.30639648 C205.33919922 118.25352539 205.33919922 118.25352539 205.20703125 120.23999023 C202.37306117 149.03678296 186.17619389 175.74002467 164.46875 194.30639648 C157.12520579 199.97861185 148.91765951 204.50508088 140.46875 208.30639648 C139.45184082 208.76868652 138.43493164 209.23097656 137.38720703 209.70727539 C121.06066614 216.64050196 104.0247041 217.04777911 86.54370117 216.84838867 C82.61652539 216.80596738 78.69104187 216.80738683 74.76367188 216.81420898 C72.24217565 216.80373187 69.72068814 216.7908018 67.19921875 216.77514648 C66.03770798 216.77494507 64.8761972 216.77474365 63.67948914 216.77453613 C56.4316636 216.66900489 49.9477687 216.31265655 44.2265625 211.36889648 C43.68773437 210.68827148 43.14890625 210.00764648 42.59375 209.30639648 C42.03945313 208.62577148 41.48515625 207.94514648 40.9140625 207.24389648 C37.64383748 202.86002727 37.14790883 200.46935378 37.09375 194.99389648 C37.06539062 193.69838867 37.03703125 192.40288086 37.0078125 191.06811523 C37.66989746 185.66482868 40.23230914 181.91792021 44.46875 178.55639648 C48.68580966 175.39360174 51.29920325 174.06042354 56.59765625 174.03515625 C57.61972168 174.02496964 58.64178711 174.01478302 59.69482422 174.00428772 C60.79584473 174.00214767 61.89686523 174.00000763 63.03125 173.99780273 C65.37890853 173.97262353 67.72656472 173.94722581 70.07421875 173.92163086 C73.7625253 173.89301089 77.45079087 173.86898847 81.13916016 173.85009766 C84.70758125 173.82825998 88.27550458 173.78878706 91.84375 173.74780273 C92.92857666 173.74768692 94.01340332 173.74757111 95.13110352 173.74745178 C112.89453102 173.52120688 129.52609504 166.58090439 142.46875 154.30639648 C144.30371265 152.23655323 145.93478985 150.06383162 147.53125 147.80639648 C147.96244141 147.19908691 148.39363281 146.59177734 148.83789062 145.96606445 C152.83186154 140.13069771 155.36913983 134.05448855 157.46875 127.30639648 C157.71238281 126.62577148 157.95601562 125.94514648 158.20703125 125.24389648 C160.33921637 118.51373394 159.67292242 111.26937998 159.46875 104.30639648 C159.46230469 103.20682617 159.45585938 102.10725586 159.44921875 100.97436523 C158.89682192 84.3820012 150.38131694 70.37844597 138.6015625 59.08374023 C134.85319303 55.96009901 130.75297007 53.61381404 126.46875 51.30639648 C125.81132813 50.92612305 125.15390625 50.54584961 124.4765625 50.15405273 C114.49292708 44.66512455 103.90330503 43.87217836 92.71875 44.11889648 C91.5328125 44.13243164 90.346875 44.1459668 89.125 44.15991211 C86.23908307 44.19482239 83.35417736 44.24385109 80.46875 44.30639648 C80.8699707 44.88502441 81.27119141 45.46365234 81.68457031 46.05981445 C84.64055218 50.39352379 87.27064317 54.53444301 89.21875 59.43139648 C89.60546875 60.38272461 89.9921875 61.33405273 90.390625 62.31420898 C96.35705393 78.87321103 94.88308509 96.45225295 87.46875 112.30639648 C83.53213061 119.92797923 78.44357232 127.87190897 70.53125 131.74389648 C69.850625 131.92952148 69.17 132.11514648 68.46875 132.30639648 C69.3843526 131.07643699 70.30129203 129.84747263 71.21875 128.61889648 C71.76917969 127.88026367 72.31960938 127.14163086 72.88671875 126.38061523 C74.04935483 124.85627015 75.27421974 123.37888588 76.53125 121.93139648 C87.35421217 107.26802838 89.56722993 88.24207655 86.9140625 70.62280273 C82.74204867 53.43807911 72.23287977 36.66902371 57.09375 27.43139648 C38.98967109 16.93256077 17.819141 14.31822522 -2.65625 18.61889648 C-23.28130698 24.63987585 -39.92539521 37.56692834 -55.18359375 52.16967773 C-57.85161 54.70909666 -60.60818215 57.06001607 -63.53125 59.30639648 C-62.12328942 56.27874872 -60.4592376 53.72503035 -58.44140625 51.06811523 C-57.52029053 49.84886353 -57.52029053 49.84886353 -56.58056641 48.60498047 C-55.92491699 47.74332275 -55.26926758 46.88166504 -54.59375 45.99389648 C-53.22713319 44.18715781 -51.86125354 42.37986132 -50.49609375 40.57202148 C-49.48458252 39.23300781 -49.48458252 39.23300781 -48.45263672 37.86694336 C-46.27480534 34.96464406 -44.13330651 32.03797348 -42.00317383 29.10058594 C-20.90162636 0.01280844 -20.90162636 0.01280844 0 0 Z " fill="#2D3C49" transform="translate(519.53125,342.693603515625)"/>
<path d="M0 0 C4.95 0 9.9 0 15 0 C15 34.65 15 69.3 15 105 C10.05 105 5.1 105 0 105 C-0.495 100.545 -0.495 100.545 -1 96 C-1.46148437 96.45890625 -1.92296875 96.9178125 -2.3984375 97.390625 C-9.63163604 104.19497777 -16.12671832 107.1811338 -26.125 107.4375 C-36.60269393 107.08597564 -43.71350872 103.48382592 -50.98828125 95.9375 C-59.38516922 86.48013549 -61.61501374 77.01801975 -61.28125 64.390625 C-60.33004379 52.92330572 -56.00892559 44.5587263 -47.6875 36.6875 C-39.63060072 29.99345931 -33.12850473 28.30134351 -22.58984375 28.6171875 C-14.62646353 29.46638365 -7.77691337 33.49068207 -2 39 C-2 39.66 -2 40.32 -2 41 C-1.34 41 -0.68 41 0 41 C0 27.47 0 13.94 0 0 Z " fill="#2C3A45" transform="translate(447,608)"/>
<path d="M0 0 C0.11702007 16.90750989 0.20507918 33.81489263 0.25906086 50.72271538 C0.28479645 58.57407071 0.31985735 66.4251738 0.37719727 74.27636719 C0.4271754 81.1228459 0.45932476 87.96914185 0.47044247 94.81579792 C0.47693708 98.43810675 0.49210226 102.05989293 0.52865028 105.68203354 C0.56920732 109.73470578 0.56994027 113.78648071 0.56762695 117.83935547 C0.58560333 119.02834946 0.60357971 120.21734344 0.62210083 121.44236755 C0.57576781 128.96532327 -0.65137396 134.747533 -5 141 C-9.69109451 145.59143752 -15.03142823 147.95365172 -21.67578125 148.03125 C-29.29702659 147.61873334 -33.41036772 145.7703043 -38.6875 140.125 C-42.92866689 134.39369339 -44.45452537 129.86279755 -44.53100586 122.77001953 C-44.55071945 121.96579056 -44.57043304 121.16156158 -44.59074402 120.33296204 C-44.64964863 117.68290163 -44.68487403 115.03335051 -44.71484375 112.3828125 C-44.72707033 111.47051754 -44.73929691 110.55822258 -44.751894 109.61828232 C-44.81437336 104.78232656 -44.85730878 99.94662292 -44.88549805 95.11035156 C-44.91854506 90.155422 -45.02157284 85.20459055 -45.14101315 80.25110054 C-45.22012385 76.40729185 -45.24462629 72.56442611 -45.25534248 68.71987534 C-45.26980289 66.89628519 -45.30425034 65.0727239 -45.36045647 63.24994278 C-45.75758159 49.50881393 -42.62613077 41.75914632 -33.38953209 31.54866028 C-31.63565431 29.59392971 -30.05104165 27.53028033 -28.4765625 25.4296875 C-23.10944718 18.67540164 -17.51375667 12.18843669 -11.5 6 C-10.92459473 5.39397949 -10.34918945 4.78795898 -9.75634766 4.16357422 C-6.39070122 0.7959509 -4.71746933 -0.31955762 0 0 Z " fill="#E0442B" transform="translate(535,411)"/>
<path d="M0 0 C10.42712374 5.68446423 16.97097416 13.47423597 20.56640625 24.78125 C22.9978169 37.22306304 20.99851702 47.7288385 14.18066406 58.34228516 C11.35324265 62.31213449 7.99482571 65.25944806 4 68 C3.40316406 68.42539062 2.80632813 68.85078125 2.19140625 69.2890625 C-6.94775041 75.15669657 -19.2950295 75.33463099 -29.68359375 73.53515625 C-39.70218895 70.60076701 -47.93811339 62.53179461 -53.35546875 53.8203125 C-58.30144251 44.356897 -58.59218079 31.77733677 -55.875 21.5 C-54.1249749 16.61792064 -51.40119111 12.86976376 -48 9 C-47.50886719 8.39285156 -47.01773438 7.78570313 -46.51171875 7.16015625 C-34.83028145 -6.08653567 -15.20875221 -7.89873905 0 0 Z " fill="#2E3C47" transform="translate(877,641)"/>
<path d="M0 0 C0.69738281 0.30164063 1.39476562 0.60328125 2.11328125 0.9140625 C12.3011921 5.63388561 18.11728723 12.96552479 22.375 23.25 C25.88805831 33.83345718 24.52018283 43.95984312 20 54 C13.90347503 65.87803194 4.21750145 70.92749952 -8 75 C-21.12298315 75.76673609 -31.5421574 74.73402239 -42 66 C-51.16428042 56.72530656 -54.79620568 45.98328631 -54.73901367 33.16210938 C-54.26258738 22.9521002 -49.6905803 14.64822622 -43 7 C-30.87030934 -3.20815551 -14.69089704 -6.64926481 0 0 Z " fill="#2E3C47" transform="translate(783,640)"/>
<path d="M0 0 C2.62731194 2.47165432 4.86924228 5.09313848 7 8 C7.61875 7.43732422 7.61875 7.43732422 8.25 6.86328125 C16.64736259 -0.57813158 23.16807144 -4.38282898 34.5703125 -4.28125 C42.32089806 -3.64566667 48.55086897 -0.44913103 54 5 C57.71429138 10.17347728 59.25572547 15.48467088 59.22705078 21.82177734 C59.22689972 22.94248627 59.22674866 24.06319519 59.22659302 25.21786499 C59.21627045 26.41182892 59.20594788 27.60579285 59.1953125 28.8359375 C59.1924826 30.07042633 59.18965271 31.30491516 59.18673706 32.57681274 C59.17556522 36.50964149 59.15046564 40.44224037 59.125 44.375 C59.11383825 47.04556959 59.10584119 49.71613701 59.09765625 52.38671875 C59.07563562 58.92456739 59.04112592 65.46224475 59 72 C54.05 72 49.1 72 44 72 C43.99589111 70.52724609 43.99178223 69.05449219 43.98754883 67.53710938 C43.96570529 62.05010432 43.91136011 56.563811 43.84741211 51.07714844 C43.82427784 48.70677535 43.80984719 46.33630013 43.80444336 43.96582031 C43.79512087 40.5494862 43.75405462 37.13474835 43.70703125 33.71875 C43.7109639 32.66635132 43.71489655 31.61395264 43.71894836 30.52966309 C43.58744637 23.8321969 42.47385219 19.12907393 38 14 C33.3053852 10.58573469 28.61923305 10.26354755 23 11 C17.55757641 12.95105751 14.8040251 15.93549707 11.91055298 20.85064697 C10.84854968 23.35749727 10.72318636 25.23394893 10.68115234 27.95214844 C10.66128265 28.93286316 10.64141296 29.91357788 10.62094116 30.92401123 C10.60938995 31.97518127 10.59783875 33.02635132 10.5859375 34.109375 C10.56657135 35.19132141 10.5472052 36.27326782 10.5272522 37.38800049 C10.46749763 40.84192026 10.42108703 44.29587344 10.375 47.75 C10.33681647 50.09246241 10.29776452 52.43491084 10.2578125 54.77734375 C10.16179927 60.51811553 10.07775256 66.25895303 10 72 C5.05 72 0.1 72 -5 72 C-5.00410889 70.52724609 -5.00821777 69.05449219 -5.01245117 67.53710938 C-5.03429471 62.05010432 -5.08863989 56.563811 -5.15258789 51.07714844 C-5.17572216 48.70677535 -5.19015281 46.33630013 -5.19555664 43.96582031 C-5.20487913 40.5494862 -5.24594538 37.13474835 -5.29296875 33.71875 C-5.2890361 32.66635132 -5.28510345 31.61395264 -5.28105164 30.52966309 C-5.41207581 23.85653222 -6.50679592 19.09842872 -11 14 C-14.58941162 11.81414036 -17.8458368 11.72880529 -22 11.75 C-23.010625 11.74484375 -24.02125 11.7396875 -25.0625 11.734375 C-28.10210796 12.00923317 -30.27710518 12.64097079 -33 14 C-34.27489266 15.79927039 -34.27489266 15.79927039 -35 18 C-35.34018158 18.76374435 -35.68036316 19.52748871 -36.03085327 20.31437683 C-37.03944235 23.10929954 -37.27391187 25.19919796 -37.31884766 28.1574707 C-37.33871735 29.15813065 -37.35858704 30.15879059 -37.37905884 31.18977356 C-37.39061005 32.2576561 -37.40216125 33.32553864 -37.4140625 34.42578125 C-37.43342865 35.52850876 -37.4527948 36.63123627 -37.4727478 37.76737976 C-37.53242923 41.28234166 -37.57888375 44.79733651 -37.625 48.3125 C-37.66319026 50.69858183 -37.7022426 53.08465003 -37.7421875 55.47070312 C-37.8381216 61.31369111 -37.92219534 67.15674362 -38 73 C-43.28 73 -48.56 73 -54 73 C-54 48.25 -54 23.5 -54 -2 C-49.05 -2 -44.1 -2 -39 -2 C-39 0.97 -39 3.94 -39 7 C-38.01 7 -37.02 7 -36 7 C-35.92394531 6.40574219 -35.84789063 5.81148437 -35.76953125 5.19921875 C-34.73520249 2.24324368 -33.30345451 1.47797677 -30.6875 -0.1875 C-29.90761719 -0.69667969 -29.12773438 -1.20585938 -28.32421875 -1.73046875 C-19.80578276 -6.38339597 -8.04394039 -5.03957711 0 0 Z " fill="#2F3D49" transform="translate(91,641)"/>
<path d="M0 0 C3.94485873 2.61963275 7.11089849 5.24042469 10 8.9921875 C10.46792969 9.59675781 10.93585938 10.20132813 11.41796875 10.82421875 C17.73564991 19.92093855 18 28.9432772 18 39.9921875 C-1.8 39.9921875 -21.6 39.9921875 -42 39.9921875 C-38.51641291 50.5022131 -38.51641291 50.5022131 -30.5625 57.3671875 C-22.82955609 60.83971703 -13.68900199 59.88895995 -5.875 57.1796875 C-2.50321322 55.84224624 0.17337821 54.26520825 3 51.9921875 C7.28904235 53.5807217 9.32345526 56.42346118 12 59.9921875 C12 60.6521875 12 61.3121875 12 61.9921875 C9.1551113 64.21727474 6.04825333 66.0585166 3 67.9921875 C2.195625 68.5696875 1.39125 69.1471875 0.5625 69.7421875 C-9.04698876 74.42974299 -23.81545341 74.87369943 -34.0625 71.8671875 C-45.21134717 67.29551322 -52.55686127 58.15768663 -57.125 47.32421875 C-58.29315305 42.87585023 -58.32951211 38.69684784 -58.3125 34.1171875 C-58.32861328 33.25738281 -58.34472656 32.39757812 -58.36132812 31.51171875 C-58.37012777 19.91378889 -53.23697858 11.28103285 -45.12109375 3.09765625 C-31.98497882 -7.73483936 -14.28667521 -8.08495938 0 0 Z " fill="#313E49" transform="translate(539,642.0078125)"/>
<path d="M0 0 C5.28 0 10.56 0 16 0 C16 25.08 16 50.16 16 76 C10.72 76 5.44 76 0 76 C-0.495 71.545 -0.495 71.545 -1 67 C-1.556875 67.47050781 -2.11375 67.94101562 -2.6875 68.42578125 C-12.61271792 76.52355195 -20.06624625 78.05375449 -33 77 C-35.92438472 76.36276076 -37.38275606 75.6148952 -40 74 C-41.010625 73.401875 -42.02125 72.80375 -43.0625 72.1875 C-49.62976874 66.05432213 -52.02938494 57.48036172 -52.48364258 48.79467773 C-52.66320514 41.56858137 -52.52468595 34.35040684 -52.375 27.125 C-52.34485454 24.58727132 -52.31748687 22.04950804 -52.29296875 19.51171875 C-52.2273584 13.34028074 -52.12408507 7.17052793 -52 1 C-46.72 1 -41.44 1 -36 1 C-36.00112793 2.46751709 -36.00225586 3.93503418 -36.00341797 5.44702148 C-35.9997314 10.92104208 -35.95679745 16.39418839 -35.90234375 21.86791992 C-35.88423845 24.23146921 -35.87660525 26.59512388 -35.87988281 28.95874023 C-35.88275545 32.36784542 -35.84727585 35.77478922 -35.8046875 39.18359375 C-35.81378143 40.23083115 -35.82287537 41.27806854 -35.83224487 42.35704041 C-35.69302323 49.47450495 -34.18990132 54.8799306 -29 60 C-23.72752844 62.53129175 -18.75801115 62.79726308 -13 62 C-8.41962278 60.11837204 -4.47784134 57.37266119 -2 53 C-1.02758055 50.08274166 -0.84832181 48.11196561 -0.79467773 45.06958008 C-0.77473251 44.06876907 -0.75478729 43.06795807 -0.73423767 42.03681946 C-0.70916893 40.4195118 -0.70916893 40.4195118 -0.68359375 38.76953125 C-0.66281265 37.66397385 -0.64203156 36.55841644 -0.62062073 35.4193573 C-0.55517668 31.8838021 -0.49626397 28.34817194 -0.4375 24.8125 C-0.3943099 22.41730992 -0.35069546 20.02212745 -0.30664062 17.62695312 C-0.19950048 11.75137912 -0.09821832 5.87572964 0 0 Z " fill="#303E4B" transform="translate(223,638)"/>
<path d="M0 0 C26.4 0 52.8 0 80 0 C80 4.62 80 9.24 80 14 C69.44 14 58.88 14 48 14 C48 44.03 48 74.06 48 105 C42.72 105 37.44 105 32 105 C32 74.97 32 44.94 32 14 C21.44 14 10.88 14 0 14 C0 9.38 0 4.76 0 0 Z " fill="#2C3C49" transform="translate(647,609)"/>
<path d="M0 0 C0.9609375 1.89453125 0.9609375 1.89453125 1 4 C-0.21484375 6.140625 -0.21484375 6.140625 -1.9375 8.25 C-2.50339844 8.95640625 -3.06929687 9.6628125 -3.65234375 10.390625 C-4.31943359 11.18726563 -4.31943359 11.18726563 -5 12 C-7.85918228 11.07269764 -10.68457177 10.13117809 -13.4609375 8.9765625 C-21.31153558 5.8048309 -28.53950775 4.23118411 -36.625 7.4375 C-38.86187174 8.79450789 -38.86187174 8.79450789 -40 10 C-40.41692853 13.41600593 -40.41692853 13.41600593 -40 17 C-37.2098337 19.68706547 -34.46142724 20.63464319 -30.75 21.5625 C-29.77417969 21.81386719 -28.79835938 22.06523438 -27.79296875 22.32421875 C-26.17392799 22.71595868 -24.55251979 23.09859733 -22.92578125 23.45703125 C-14.3044656 25.39095321 -5.11680898 28.41266725 1 35 C4.60845108 40.89380344 5.20965427 47.21004281 4 54 C0.66195097 60.91527291 -4.99133416 65.16695163 -12 68 C-22.45074435 71.57193316 -35.32241741 71.73171053 -45.51953125 67.2734375 C-46.33808594 66.85320312 -47.15664063 66.43296875 -48 66 C-48.95261719 65.51789063 -49.90523437 65.03578125 -50.88671875 64.5390625 C-56.01918515 61.71871137 -56.01918515 61.71871137 -58 60 C-58 55.62548685 -57.59622397 54.99527997 -55 51.75 C-54.443125 51.04359375 -53.88625 50.3371875 -53.3125 49.609375 C-52.879375 49.07828125 -52.44625 48.5471875 -52 48 C-49.83899818 49.07799395 -47.68119281 50.16167 -45.52734375 51.25390625 C-44.67269531 51.68574219 -43.81804688 52.11757813 -42.9375 52.5625 C-42.08027344 52.99691406 -41.22304688 53.43132813 -40.33984375 53.87890625 C-33.40198334 57.2030564 -24.56206521 57.23284367 -17.3125 54.6875 C-13.80824119 53.24275849 -13.80824119 53.24275849 -12 50 C-11.65804308 47.26434466 -11.46617151 45.70400871 -13.1640625 43.46484375 C-15.55508508 41.55711297 -17.75141258 40.92085429 -20.6875 40.0625 C-21.83992187 39.72089844 -22.99234375 39.37929688 -24.1796875 39.02734375 C-26.8323905 38.31398906 -29.45444591 37.65805104 -32.1328125 37.06640625 C-40.6331347 35.17447258 -47.95379014 33.49958984 -53.359375 26.15234375 C-56.63005112 20.5182681 -56.80186129 15.18836286 -55.59765625 8.8984375 C-53.48941447 1.76073003 -48.01651233 -2.22558098 -41.8125 -5.875 C-28.57872233 -11.16851107 -11.51595573 -8.21238863 0 0 Z " fill="#2F3D49" transform="translate(1006,645)"/>
<path d="M0 0 C5.61 0 11.22 0 17 0 C17.94875 2.619375 18.8975 5.23875 19.875 7.9375 C23.21253475 17.06910581 26.79319868 26.09594446 30.44677734 35.10522461 C33.10897987 41.68834796 35.62028799 48.30947797 38 55 C40.42858351 52.57141649 41.06097192 50.5347661 42.25 47.3125 C42.69085937 46.136875 43.13171875 44.96125 43.5859375 43.75 C43.81764648 43.13125 44.04935547 42.5125 44.28808594 41.875 C45.44150633 38.83718499 46.66039602 35.82627672 47.875 32.8125 C50.49050866 26.31436841 53.03621535 19.79044964 55.55224609 13.25317383 C55.96531006 12.18425903 55.96531006 12.18425903 56.38671875 11.09375 C56.62608154 10.47177734 56.86544434 9.84980469 57.11206055 9.20898438 C58.35478465 6.1173793 59.68745137 3.06261347 61 0 C66.28 0 71.56 0 77 0 C75.88203753 7.82573727 75.88203753 7.82573727 73.71875 11.76171875 C70.96736239 16.99073881 68.7030242 22.33341855 66.5 27.8125 C66.1090918 28.77663818 65.71818359 29.74077637 65.31542969 30.73413086 C62.01577969 38.89754174 58.80571677 47.09142181 55.765625 55.35546875 C53.3107239 61.93975595 50.58687347 67.95355615 47 74 C41.39 74 35.78 74 30 74 C27.19039439 67.91252118 24.48137314 61.82840039 22.02734375 55.58984375 C20.08698875 50.69837848 18.03177323 45.85402358 16 41 C14.74786631 37.99643943 13.49684345 34.99241838 12.24609375 31.98828125 C11.42800784 30.02641379 10.60776413 28.06544445 9.78515625 26.10546875 C7.38450424 20.37611715 5.01841599 14.63304461 2.6875 8.875 C2.42074463 8.22297607 2.15398926 7.57095215 1.87915039 6.89916992 C0 2.23064601 0 2.23064601 0 0 Z " fill="#2F3C48" transform="translate(565,639)"/>
<path d="M0 0 C5.28 0 10.56 0 16 0 C16 6.93 16 13.86 16 21 C20.95 21 25.9 21 31 21 C31 25.29 31 29.58 31 34 C26.05 34 21.1 34 16 34 C16.04417155 40.03284363 16.11402568 46.06464256 16.20751953 52.09692383 C16.23571564 54.14827146 16.25693693 56.19972747 16.27099609 58.2512207 C16.29244424 61.20320054 16.33910448 64.1538793 16.390625 67.10546875 C16.39185364 68.02023483 16.39308228 68.93500092 16.39434814 69.87748718 C16.49037923 74.06825334 16.66127009 76.43469207 18.85449219 80.0949707 C20.89471584 82.26714489 20.89471584 82.26714489 23.9375 82.375 C26.67051041 82.04034566 29.32020291 81.63054049 32 81 C34.48063781 90.41002278 34.48063781 90.41002278 33 95 C25.71076733 97.59172717 17.78566851 98.64108698 10.5625 95.3125 C4.52947319 91.77887001 1.77522746 86.65234058 0 80 C-0.38055709 76.37727052 -0.35136923 72.79557822 -0.29296875 69.15625 C-0.28872391 68.14655151 -0.28447906 67.13685303 -0.28010559 66.09655762 C-0.26342214 62.89742443 -0.22578903 59.69894017 -0.1875 56.5 C-0.17243982 54.32032165 -0.15875375 52.14063335 -0.14648438 49.9609375 C-0.11355245 44.64037807 -0.06184181 39.32029875 0 34 C-3.96 34 -7.92 34 -12 34 C-12 29.71 -12 25.42 -12 21 C-8.04 21 -4.08 21 0 21 C0 14.07 0 7.14 0 0 Z " fill="#303F4B" transform="translate(304,618)"/>
<path d="M0 0 C6.03695805 3.86365315 11.01077455 9.09170702 13.1875 16 C14.31267389 26.10039816 12.5035592 32.97853892 7 41.3125 C1.69690029 46.37990639 -3.56569187 48.22313227 -10.875 48.5 C-17.32822023 48.23760731 -22.01008721 46.94285261 -26.52734375 42.19921875 C-32.26274299 34.97738352 -34.81555075 28.21111389 -33.8125 19 C-32.28080555 10.66537434 -27.54807476 4.32414745 -20.625 -0.5 C-14.21667466 -3.71136304 -6.28716031 -3.17044836 0 0 Z " fill="#F6F9F9" transform="translate(777.8125,653)"/>
<path d="M0 0 C4.25397722 3.15307357 6.83897682 6.85709185 8.2421875 11.90234375 C9.41997876 22.09384362 8.04030593 29.95249891 1.9921875 38.21484375 C-3.31106305 43.39756588 -7.80820358 45.14582115 -15.2578125 45.46484375 C-22.2486998 45.23019591 -26.31796665 43.26996187 -31.24609375 38.4453125 C-36.25984846 32.83996431 -38.30813413 27.47974148 -38.1953125 20.02734375 C-38.18628906 19.31843994 -38.17726563 18.60953613 -38.16796875 17.87915039 C-37.89791715 9.7316561 -35.71876463 5.51671635 -29.8828125 0.02734375 C-20.22036587 -7.78446854 -10.01369262 -6.25299472 0 0 Z " fill="#F7FAFA" transform="translate(873.7578125,656.09765625)"/>
<path d="M0 0 C6.23987612 3.52474015 9.31742556 8.0476806 11.5625 14.8125 C12.7109114 24.20076318 12.4266066 33.01920951 6.5625 40.8125 C2.84814532 44.81184353 -1.15560087 47.54552904 -6.609375 48.18359375 C-18.51568396 48.40456237 -18.51568396 48.40456237 -23.7578125 44.43359375 C-30.32076645 38.09958005 -33.4626483 32.10976615 -33.75 22.9375 C-33.58222073 14.46464711 -31.4299968 8.9443572 -25.4375 2.8125 C-17.48701375 -3.07085983 -9.10252169 -4.3081668 0 0 Z " fill="#F8FBFB" transform="translate(435.4375,653.1875)"/>
<path d="M0 0 C5.28 0 10.56 0 16 0 C16 35.31 16 70.62 16 107 C10.72 107 5.44 107 0 107 C0 71.69 0 36.38 0 0 Z " fill="#354550" transform="translate(262,607)"/>
<path d="M0 0 C4.95 0 9.9 0 15 0 C15 35.31 15 70.62 15 107 C10.05 107 5.1 107 0 107 C0 71.69 0 36.38 0 0 Z " fill="#2C3A46" transform="translate(916,607)"/>
<path d="M0 0 C4.95 0 9.9 0 15 0 C15 24.75 15 49.5 15 75 C10.05 75 5.1 75 0 75 C0 50.25 0 25.5 0 0 Z " fill="#2A3843" transform="translate(353,639)"/>
<path d="M0 0 C4.26885935 2.47107956 7.66521863 5.26947484 9.5 9.9375 C9.995 13.8975 9.995 13.8975 10.5 17.9375 C-4.35 17.9375 -19.2 17.9375 -34.5 17.9375 C-32.20906927 8.77377707 -29.15310197 4.50848524 -21.8125 -1.125 C-14.46197073 -3.20533847 -7.01157194 -3.18039865 0 0 Z " fill="#F5F8F8" transform="translate(530.5,652.0625)"/>
<path d="M0 0 C9.57 0.33 19.14 0.66 29 1 C29 1.33 29 1.66 29 2 C21.74 2.33 14.48 2.66 7 3 C8.98 5.97 10.96 8.94 13 12 C14.609375 15.2578125 14.609375 15.2578125 15.75 18.125 C16.13671875 19.07632812 16.5234375 20.02765625 16.921875 21.0078125 C22.88830393 37.56681454 21.41433509 55.14585646 14 71 C10.06338061 78.62158274 4.97482232 86.56551248 -2.9375 90.4375 C-3.618125 90.623125 -4.29875 90.80875 -5 91 C-4.0843974 89.77004051 -3.16745797 88.54107614 -2.25 87.3125 C-1.69957031 86.57386719 -1.14914062 85.83523438 -0.58203125 85.07421875 C0.58060483 83.54987366 1.80546974 82.07248939 3.0625 80.625 C13.88546217 65.9616319 16.09847993 46.93568007 13.4453125 29.31640625 C11.07616745 19.55778498 5.95517989 11.09602131 0.85449219 2.54370117 C0 1 0 1 0 0 Z " fill="#C25D4A" transform="translate(593,384)"/>
<path d="M0 0 C1.06863281 0.01804687 2.13726562 0.03609375 3.23828125 0.0546875 C4.04652344 0.07789063 4.85476563 0.10109375 5.6875 0.125 C5.6875 0.455 5.6875 0.785 5.6875 1.125 C2.7175 1.125 -0.2525 1.125 -3.3125 1.125 C-3.3125 1.785 -3.3125 2.445 -3.3125 3.125 C-5.9525 3.455 -8.5925 3.785 -11.3125 4.125 C-12.55171302 7.09911124 -13.61308404 9.97762818 -14.3125 13.125 C-16.2925 13.455 -18.2725 13.785 -20.3125 14.125 C-20.6425 73.855 -20.9725 133.585 -21.3125 195.125 C-21.9725 194.795 -22.6325 194.465 -23.3125 194.125 C-23.40597961 171.31565571 -23.47649704 148.50634305 -23.51974869 125.69684601 C-23.54036579 115.10577487 -23.56847019 104.51482282 -23.61425781 93.92382812 C-23.65415155 84.69172062 -23.67993901 75.45969937 -23.68885398 66.22750807 C-23.69406441 61.34000437 -23.7062932 56.45274742 -23.73542023 51.56532288 C-23.76262935 46.96229544 -23.77093388 42.35961572 -23.76493073 37.7565155 C-23.7660285 36.06989653 -23.77394965 34.38326558 -23.7893219 32.69671631 C-23.88578973 21.56403256 -23.2082342 13.76095928 -15.3125 5.125 C-10.58548476 1.00792221 -6.21402503 -0.13657198 0 0 Z " fill="#C56354" transform="translate(365.3125,347.875)"/>
<path d="M0 0 C3 1 3 1 4.38671875 3.16796875 C9.0347277 13.95749103 8.50574335 24.44259734 8 36 C8.99 35.67 9.98 35.34 11 35 C14.26185468 28.4298034 14.52878796 22.24633843 14.6875 15 C14.72166016 13.93910156 14.75582031 12.87820313 14.79101562 11.78515625 C14.87283825 9.19020999 14.94219995 6.59557364 15 4 C15.33 4 15.66 4 16 4 C16.75678389 22.74262623 16.42804664 38.39397655 3.68359375 53.24609375 C-0.13788236 57.16769587 -4.0352652 59.7462717 -9 62 C-9.70125 62.33515625 -10.4025 62.6703125 -11.125 63.015625 C-15.86363208 65.05175597 -19.86394379 65.44276347 -25 65 C-25.66 64.34 -26.32 63.68 -27 63 C-26.39414062 62.92523438 -25.78828125 62.85046875 -25.1640625 62.7734375 C-15.8043283 61.30467921 -8.11874152 57.33835421 -2.2421875 49.78515625 C3.41465775 41.6556648 5.39079122 34.06563355 5.375 24.25 C5.37556396 23.36836182 5.37612793 22.48672363 5.37670898 21.57836914 C5.26162721 14.74578208 4.00697756 9.17094592 1 3 C0.67 2.01 0.34 1.02 0 0 Z " fill="#CA523A" transform="translate(580,411)"/>
<path d="M0 0 C4.42610196 0.36279524 6.39743509 1.54792364 9.8125 4.3125 C11.38705739 7.46161479 11.16049118 9.83258816 10.8125 13.3125 C9.03969439 16.28922584 6.95641985 18.74054007 3.8125 20.3125 C0.5625 20.8125 0.5625 20.8125 -3.1875 20.3125 C-7.1231256 17.42294482 -8.96948398 14.46203901 -9.875 9.6875 C-9.01957733 5.48815233 -7.43974842 4.0094865 -4.1875 1.3125 C-3.1875 0.3125 -3.1875 0.3125 0 0 Z " fill="#333D47" transform="translate(360.1875,605.6875)"/>
<path d="M0 0 C0.97608217 2.92824652 1.08226668 4.95613276 1 8 C0.34 7.67 -0.32 7.34 -1 7 C-4.22480471 8.66852027 -4.22480471 8.66852027 -4.67842102 11.62068176 C-5.04234681 15.44500222 -5.14764242 19.23146237 -5.14526367 23.0690918 C-5.14862228 23.85518829 -5.1519809 24.64128479 -5.15544128 25.45120239 C-5.16489424 28.03389083 -5.16689103 30.61651413 -5.16796875 33.19921875 C-5.17118345 34.99949673 -5.17454768 36.79977445 -5.17805481 38.60005188 C-5.18403059 42.36496589 -5.18589612 46.12985698 -5.18530273 49.89477539 C-5.18520078 54.7236482 -5.19889392 59.55237506 -5.21607494 64.38121319 C-5.2271758 68.09490132 -5.22922259 71.80855382 -5.22869301 75.52225685 C-5.22987444 77.30328694 -5.23430533 79.0843179 -5.24202538 80.86533165 C-5.25179385 83.35002394 -5.24896062 85.83439462 -5.24291992 88.3190918 C-5.24853943 89.05628952 -5.25415894 89.79348724 -5.25994873 90.55302429 C-5.2369833 94.25969427 -5.11315414 95.83026878 -3 99 C-2.875 101.6875 -2.875 101.6875 -3 104 C-7.25144399 98.58907128 -8.30542815 94.8109791 -8.35400391 87.91772461 C-8.3671463 87.10575623 -8.3802887 86.29378784 -8.39382935 85.45721436 C-8.43321791 82.77225337 -8.45660741 80.08751617 -8.4765625 77.40234375 C-8.48471355 76.4819739 -8.49286461 75.56160404 -8.50126266 74.61334419 C-8.5429597 69.73776275 -8.5715685 64.86229333 -8.59033203 59.98657227 C-8.61240659 54.97159803 -8.68114343 49.95841219 -8.76067543 44.94406796 C-8.81319995 41.07046925 -8.82973259 37.19728957 -8.83689499 33.32336617 C-8.84658461 31.47626283 -8.86969276 29.62917556 -8.90697098 27.78242302 C-9.1083399 17.14161863 -8.95879158 10.0412795 -1.72006226 1.71974182 C-1.15244171 1.15222702 -0.58482117 0.58471222 0 0 Z " fill="#CD5847" transform="translate(499,446)"/>
<path d="M0 0 C3 2 3 2 3.41992188 3.82495117 C3.47399773 6.28134671 3.51780395 8.73032923 3.5 11.1875 C3.49427979 12.08718506 3.48855957 12.98687012 3.48266602 13.91381836 C3.09800882 28.50359364 -2.58846347 41.43686242 -12.625 52.0625 C-15.20510027 54.49699642 -17.51976911 56.05084612 -21 57 C-20.0843974 55.77004051 -19.16745797 54.54107614 -18.25 53.3125 C-17.69957031 52.57386719 -17.14914062 51.83523438 -16.58203125 51.07421875 C-15.41939517 49.54987366 -14.19453026 48.07248939 -12.9375 46.625 C-7.40952186 39.13548123 -4.90678564 31.02235155 -3 22 C-2.34 22 -1.68 22 -1 22 C-0.67 14.74 -0.34 7.48 0 0 Z " fill="#C55B43" transform="translate(609,418)"/>
<path d="M0 0 C0.33 0 0.66 0 1 0 C1.00331015 0.89121866 1.00662029 1.78243732 1.01003075 2.70066261 C1.09124286 24.38365617 1.18332951 46.06657973 1.28752708 67.74947548 C1.33765382 78.2351498 1.38409678 88.72081629 1.421875 99.20654297 C1.45481093 108.34564947 1.49465107 117.4846953 1.54279006 126.62373483 C1.56803906 131.46299692 1.58982512 136.30221883 1.60334396 141.14152908 C1.61617875 145.69692492 1.63824857 150.25218289 1.66738319 154.80750275 C1.67644786 156.47880182 1.68214661 158.15012309 1.68421364 159.82144547 C1.68754403 162.10537317 1.70304223 164.38891184 1.7215271 166.67276001 C1.72705786 167.95036509 1.73258862 169.22797016 1.73828697 170.54429054 C2.00077437 174.01022487 2.75128922 176.76949232 4 180 C3.01 180 2.02 180 1 180 C0.00560309 175.8664247 -0.12329792 172.00060376 -0.12025452 167.75505066 C-0.12110894 167.03615687 -0.12196337 166.31726308 -0.12284368 165.57658464 C-0.12448755 163.17367085 -0.11899504 160.77082725 -0.11352539 158.36791992 C-0.11324326 156.64306642 -0.11340176 154.9182128 -0.1139679 153.19335938 C-0.11425485 148.5140421 -0.10837456 143.83475046 -0.10139394 139.15543914 C-0.09514346 134.26405323 -0.09455526 129.37266675 -0.09336853 124.48127747 C-0.09026022 115.22016286 -0.08205356 105.95906007 -0.07201904 96.69795066 C-0.06084239 86.1539015 -0.05534354 75.60985177 -0.05032361 65.06579816 C-0.03987054 43.37719219 -0.02228076 21.68859684 0 0 Z " fill="#F7F1E8" transform="translate(341,368)"/>
<path d="M0 0 C0 43.23 0 86.46 0 131 C-0.33 131 -0.66 131 -1 131 C-1 88.76 -1 46.52 -1 3 C-2.65 3 -4.3 3 -6 3 C-6.061875 3.5775 -6.12375 4.155 -6.1875 4.75 C-7.34689075 7.96062054 -9.17315616 9.18274325 -12 11 C-12.99 10.67 -13.98 10.34 -15 10 C-13.45355352 8.31842713 -11.88719279 6.65515155 -10.3125 5 C-9.44238281 4.071875 -8.57226562 3.14375 -7.67578125 2.1875 C-5 0 -5 0 0 0 Z " fill="#C45C4C" transform="translate(535,411)"/>
<path d="M0 0 C0.66 0 1.32 0 2 0 C2 0.66 2 1.32 2 2 C1.34 2 0.68 2 0 2 C0 1.34 0 0.68 0 0 Z M-1 3 C-2.82501292 9.59812363 -6.54468106 12.33850354 -11.859375 16.4453125 C-17.36064997 20.78567203 -22.13095876 25.97800459 -27 31 C-27 27.3984382 -26.27123528 26.70717022 -24.078125 23.9453125 C-23.46453125 23.16542969 -22.8509375 22.38554687 -22.21875 21.58203125 C-21.24421875 20.36580078 -21.24421875 20.36580078 -20.25 19.125 C-19.61578125 18.32191406 -18.9815625 17.51882813 -18.328125 16.69140625 C-17.10024525 15.13864998 -15.86797883 13.58935016 -14.63085938 12.04394531 C-13.31476327 10.39449074 -12.02096719 8.72725734 -10.734375 7.0546875 C-7.68431697 3.44133046 -5.57275876 2.75282385 -1 3 Z " fill="#2A3134" transform="translate(484,371)"/>
<path d="M0 0 C0.33 0 0.66 0 1 0 C1.55353075 17.85649203 1.55353075 17.85649203 -2 26 C-3.32 26 -4.64 26 -6 26 C-6.33 18.08 -6.66 10.16 -7 2 C-5 3 -5 3 -3 6 C-2.01 4.02 -1.02 2.04 0 0 Z " fill="#D44124" transform="translate(594,421)"/>
<path d="M0 0 C2 3 2 3 2 5 C2.66 5.33 3.32 5.66 4 6 C-2.03550543 12.60133407 -10.1143896 18.22141508 -19.2109375 19.25 C-21.375 19.3125 -21.375 19.3125 -25 19 C-25.66 18.34 -26.32 17.68 -27 17 C-26.39414062 16.92523438 -25.78828125 16.85046875 -25.1640625 16.7734375 C-15.545374 15.2640433 -8.14055491 11.16545717 -2.05859375 3.515625 C-0.92439535 1.97005835 -0.92439535 1.97005835 0 0 Z " fill="#C85E49" transform="translate(580,457)"/>
<path d="M0 0 C0.33 0.66 0.66 1.32 1 2 C1.66 2.33 2.32 2.66 3 3 C0.90035482 5.94075597 -1.2054905 8.87701706 -3.3125 11.8125 C-3.90740234 12.64587891 -4.50230469 13.47925781 -5.11523438 14.33789062 C-5.69208984 15.14033203 -6.26894531 15.94277344 -6.86328125 16.76953125 C-7.65665894 17.87711792 -7.65665894 17.87711792 -8.46606445 19.00708008 C-9.87009499 20.8312248 -11.33140208 22.41887772 -13 24 C-13.33 22.02 -13.66 20.04 -14 18 C-12.68 18 -11.36 18 -10 18 C-10 17.34 -10 16.68 -10 16 C-11.32 15.67 -12.64 15.34 -14 15 C-13.25 9.25 -13.25 9.25 -11 7 C-9.00047242 6.95653201 -6.99960012 6.960008 -5 7 C-2.73433657 6.56058477 -2.73433657 6.56058477 -1 6 C-0.67 4.02 -0.34 2.04 0 0 Z " fill="#D9462A" transform="translate(475,443)"/>
<path d="M0 0 C-2.7982237 1.46603975 -5.58651507 2.57580597 -8.5625 3.625 C-18.79995715 7.70492778 -26.52960368 15.10939389 -34 23 C-34.99665741 24.00333145 -35.99530157 25.00472061 -37 26 C-37.57598853 22.77446424 -37.84575831 21.09410961 -37 18 C-31.90739677 12.11590833 -25.50130464 8.73943296 -18 7 C-18.33 5.68 -18.66 4.36 -19 3 C-17.68 3.66 -16.36 4.32 -15 5 C-15 4.34 -15 3.68 -15 3 C-9.63999211 0.74315457 -5.8022175 -0.36263859 0 0 Z " fill="#D44332" transform="translate(535,392)"/>
<path d="M0 0 C1.98 0 3.96 0 6 0 C5.01 0.33 4.02 0.66 3 1 C2.67 18.49 2.34 35.98 2 54 C1.34 54 0.68 54 0 54 C0 36.18 0 18.36 0 0 Z " fill="#47525C" transform="translate(171,639)"/>
<path d="M0 0 C3 2 3 2 3.38818359 3.90429688 C3.39156738 4.66806641 3.39495117 5.43183594 3.3984375 6.21875 C3.40447998 7.0646167 3.41052246 7.9104834 3.41674805 8.78198242 C3.40297119 9.67892822 3.38919434 10.57587402 3.375 11.5 C3.36702393 12.40532471 3.35904785 13.31064941 3.35083008 14.2434082 C3.08173172 26.86378046 3.08173172 26.86378046 0 32 C-1.485 32.495 -1.485 32.495 -3 33 C-2.85915204 31.20793453 -2.71216299 29.41635083 -2.5625 27.625 C-2.48128906 26.62726563 -2.40007813 25.62953125 -2.31640625 24.6015625 C-2 22 -2 22 -1 20 C-0.84876169 18.4804236 -0.75118307 16.95527498 -0.68359375 15.4296875 C-0.64169922 14.53378906 -0.59980469 13.63789063 -0.55664062 12.71484375 C-0.51732422 11.77769531 -0.47800781 10.84054687 -0.4375 9.875 C-0.39431641 8.93011719 -0.35113281 7.98523438 -0.30664062 7.01171875 C-0.20040928 4.67462908 -0.09836824 2.3374317 0 0 Z " fill="#C2462A" transform="translate(609,418)"/>
<path d="M0 0 C3 1 3 1 4.38671875 3.09765625 C9.34631274 14.40195607 8.48158516 25.88035384 8 38 C6.02 38.495 6.02 38.495 4 39 C4.15855469 38.37351562 4.31710937 37.74703125 4.48046875 37.1015625 C6.40105706 25.6357947 6.12986431 13.52755287 1 3 C0.67 2.01 0.34 1.02 0 0 Z " fill="#C75746" transform="translate(580,411)"/>
<path d="M0 0 C9.57 0.33 19.14 0.66 29 1 C29 1.33 29 1.66 29 2 C18.11 2.495 18.11 2.495 7 3 C7.66 4.98 8.32 6.96 9 9 C9.36106097 10.66088045 9.70462173 12.32618981 10 14 C5.92338701 12.641129 5.39069591 10.69457052 3.3125 7 C2.37857422 5.3603125 2.37857422 5.3603125 1.42578125 3.6875 C0 1 0 1 0 0 Z " fill="#93594D" transform="translate(593,384)"/>
<path d="M0 0 C0.33 0 0.66 0 1 0 C1.35546875 2.609375 1.35546875 2.609375 1 6 C-0.845846 8.36692214 -2.52283169 10.22998127 -4.6875 12.25 C-5.21794922 12.77851563 -5.74839844 13.30703125 -6.29492188 13.8515625 C-9.32192067 16.77828035 -11.88909971 18.74918804 -16 20 C-16.33 18.35 -16.66 16.7 -17 15 C-16.42121094 14.89945312 -15.84242188 14.79890625 -15.24609375 14.6953125 C-8.420032 12.58220121 -3.81063388 5.65821394 0 0 Z " fill="#F6E9DF" transform="translate(604,459)"/>
<path d="M0 0 C4.95 0 9.9 0 15 0 C12.08235 1.9451 10.37462715 2.45276317 7 3 C13.57315478 3.36517527 18.79485526 2.13619737 25 0 C23.46875 2.44140625 23.46875 2.44140625 21 5 C17.46875 5.77734375 17.46875 5.77734375 13.5 5.9375 C11.53546875 6.04384766 11.53546875 6.04384766 9.53125 6.15234375 C6.29033544 6.01252553 4.66385298 5.74645463 2 4 C2 3.34 2 2.68 2 2 C1.34 2 0.68 2 0 2 C0 1.34 0 0.68 0 0 Z " fill="#F8F1E8" transform="translate(548,472)"/>
<path d="M0 0 C0.99 0 1.98 0 3 0 C1.83452073 4.53241937 -0.3122508 6.46685524 -4.08984375 8.92578125 C-10.48915315 12.52457488 -16.95568202 12.4485828 -24 11 C-24.66 10.34 -25.32 9.68 -26 9 C-20.06 9 -14.12 9 -8 9 C-8 8.01 -8 7.02 -8 6 C-6.02 6 -4.04 6 -2 6 C-1.855625 5.38125 -1.71125 4.7625 -1.5625 4.125 C-1 2 -1 2 0 0 Z " fill="#C4503E" transform="translate(529,547)"/>
<path d="M0 0 C1.32 0.33 2.64 0.66 4 1 C4 1.66 4 2.32 4 3 C4.99 3 5.98 3 7 3 C8.27244083 5.2903935 9.00109421 7.00765948 9.375 9.625 C9.7583742 12.17428613 9.7583742 12.17428613 12.0625 13.3125 C12.701875 13.539375 13.34125 13.76625 14 14 C14 15.65 14 17.3 14 19 C10.16592701 15.37703938 7.13516629 11.61509651 4.1875 7.25 C3.78080078 6.66089844 3.37410156 6.07179688 2.95507812 5.46484375 C0 1.14397321 0 1.14397321 0 0 Z " fill="#C4574C" transform="translate(411,462)"/>
<path d="M0 0 C0.33 0 0.66 0 1 0 C2.2198049 4.78163521 2.19213113 9.47387192 2.1875 14.375 C2.18669434 15.25534912 2.18588867 16.13569824 2.18505859 17.04272461 C2.00069708 36.99895437 2.00069708 36.99895437 -2 43 C-2.33 41.68 -2.66 40.36 -3 39 C-2.34 39 -1.68 39 -1 39 C-1.20625 37.824375 -1.4125 36.64875 -1.625 35.4375 C-2.14349887 32.48205646 -1.9699814 30.90703917 -1.03125 28 C0.63069557 22.64652079 0.21060043 17.11006611 0.125 11.5625 C0.11146484 9.8928418 0.11146484 9.8928418 0.09765625 8.18945312 C0.0742224 5.45940977 0.041414 2.7298199 0 0 Z " fill="#80868E" transform="translate(723,434)"/>
<path d="M0 0 C0.33 0 0.66 0 1 0 C1.31301487 4.08124956 1.56806451 8.16411495 1.8125 12.25 C1.90208984 13.40886719 1.99167969 14.56773437 2.08398438 15.76171875 C2.55691411 24.37401805 2.55691411 24.37401805 -0.48828125 27.796875 C-1.31714844 28.19390625 -2.14601563 28.5909375 -3 29 C-4 27 -4 27 -3.4765625 25.21484375 C-3.19554687 24.46332031 -2.91453125 23.71179688 -2.625 22.9375 C-0.22256651 15.48885917 -0.26106518 7.75993733 0 0 Z " fill="#F3DFD3" transform="translate(613,420)"/>
<path d="M0 0 C4.13262802 0.50603608 5.49448667 2.20274824 8.0625 5.375 C8.3925 6.035 8.7225 6.695 9.0625 7.375 C8.51464844 7.18164062 7.96679688 6.98828125 7.40234375 6.7890625 C-0.29185682 4.26186166 -7.91707902 3.28398104 -15.9375 2.375 C-15.9375 2.045 -15.9375 1.715 -15.9375 1.375 C-12.97768496 1.1028331 -10.01811608 0.84728901 -7.0546875 0.6171875 C-4.70123542 0.43433784 -2.34991144 0.22380109 0 0 Z " fill="#D15047" transform="translate(555.9375,389.625)"/>
<path d="M0 0 C0.99 0.33 1.98 0.66 3 1 C2.7834375 1.8353125 2.7834375 1.8353125 2.5625 2.6875 C2.1694125 4.30352638 1.81850994 5.93013655 1.5 7.5625 C1 10 1 10 0 13 C-0.99 13 -1.98 13 -3 13 C-4.07763474 8.50985524 -4.37757467 6.66989054 -2.0625 2.5625 C-1.381875 1.716875 -0.70125 0.87125 0 0 Z " fill="#C74A31" transform="translate(585,449)"/>
<path d="M0 0 C0.609375 1.859375 0.609375 1.859375 1 4 C-0.75 6.25 -0.75 6.25 -3 8 C-3.99 8 -4.98 8 -6 8 C-6.144375 8.61875 -6.28875 9.2375 -6.4375 9.875 C-7 12 -7 12 -8 14 C-9.33333333 14.33333333 -10.66666667 14.66666667 -12 15 C-12.33 15.66 -12.66 16.32 -13 17 C-13.66 16.67 -14.32 16.34 -15 16 C-10.23991693 10.4069024 -5.25404324 5.13122145 0 0 Z " fill="#C75C4F" transform="translate(472,400)"/>
<path d="M0 0 C-2.81742383 1.47303666 -5.63623109 2.6117379 -8.625 3.6875 C-14.37625412 5.93836285 -19.10003715 9.28853878 -24 13 C-24 12.01 -24 11.02 -24 10 C-20.66666667 7 -20.66666667 7 -18 7 C-18.33 5.68 -18.66 4.36 -19 3 C-17.68 3.66 -16.36 4.32 -15 5 C-15 4.34 -15 3.68 -15 3 C-9.63999211 0.74315457 -5.8022175 -0.36263859 0 0 Z " fill="#CC5345" transform="translate(535,392)"/>
<path d="M0 0 C6.52723375 9.79085062 5.31467689 21.75321477 5 33 C4.67 33 4.34 33 4 33 C3.96261719 31.97261719 3.92523437 30.94523437 3.88671875 29.88671875 C3.55033762 22.35141674 2.88535999 15.53486006 0.6328125 8.28515625 C-0.14575755 5.4736533 -0.2351812 2.90056815 0 0 Z " fill="#EBD2C3" transform="translate(603,403)"/>
<path d="M0 0 C0.33 0 0.66 0 1 0 C1.08725659 4.2290362 1.1404789 8.45784012 1.1875 12.6875 C1.21263672 13.88568359 1.23777344 15.08386719 1.26367188 16.31835938 C1.27333984 17.47529297 1.28300781 18.63222656 1.29296875 19.82421875 C1.3086792 20.88729248 1.32438965 21.95036621 1.34057617 23.0456543 C0.9524139 26.41278807 -0.14037072 28.20713162 -2 31 C-2.70670728 33.69254991 -2.70670728 33.69254991 -3 36 C-3.66 35.67 -4.32 35.34 -5 35 C-4.52188823 33.22888156 -4.0424722 31.45811517 -3.5625 29.6875 C-3.29566406 28.70136719 -3.02882813 27.71523438 -2.75390625 26.69921875 C-2.21920575 24.78482474 -1.62855462 22.88566385 -1 21 C-0.85284801 19.37432921 -0.75278133 17.74413143 -0.68359375 16.11328125 C-0.64169922 15.17548828 -0.59980469 14.23769531 -0.55664062 13.27148438 C-0.51732422 12.29501953 -0.47800781 11.31855469 -0.4375 10.3125 C-0.37272461 8.83040039 -0.37272461 8.83040039 -0.30664062 7.31835938 C-0.20058346 4.87904454 -0.09852286 2.43962887 0 0 Z " fill="#EDC9B6" transform="translate(596,418)"/>
<path d="M0 0 C0.33 0 0.66 0 1 0 C2.072838 4.5257536 2.32169206 8.99832938 2.5625 13.625 C2.60568359 14.388125 2.64886719 15.15125 2.69335938 15.9375 C3.19442378 25.00437967 3.19442378 25.00437967 1 29.1875 C0.62875 29.90292969 0.2575 30.61835938 -0.125 31.35546875 C-0.41375 31.89816406 -0.7025 32.44085938 -1 33 C-2 31 -2 31 -1.0703125 27.625 C0.41403622 22.10671536 0.21735778 16.67645143 0.125 11 C0.11597656 9.93910156 0.10695313 8.87820313 0.09765625 7.78515625 C0.07427524 5.18986362 0.04150556 2.59505535 0 0 Z " fill="#70777B" transform="translate(679,439)"/>
<path d="M0 0 C0.75 1.75 0.75 1.75 1 4 C-1.48789792 7.25340497 -4.06390245 8.91757317 -8 10 C-10.15625 9.54296875 -10.15625 9.54296875 -12 9 C-10.38050958 7.49405319 -8.75424026 5.99539332 -7.125 4.5 C-6.22007812 3.6646875 -5.31515625 2.829375 -4.3828125 1.96875 C-2 0 -2 0 0 0 Z " fill="#CC503E" transform="translate(485,390)"/>
<path d="M0 0 C4.35486002 5.22583202 6.31408515 8.09012671 6 15 C5.34 15 4.68 15 4 15 C4 14.34 4 13.68 4 13 C3.01 12.67 2.02 12.34 1 12 C0.67 11.01 0.34 10.02 0 9 C0.33 8.67 0.66 8.34 1 8 C0.8981629 6.08575543 0.8981629 6.08575543 0.5625 3.9375 C0.376875 2.638125 0.19125 1.33875 0 0 Z " fill="#B94D37" transform="translate(601,389)"/>
<path d="M0 0 C0 0.99 0 1.98 0 3 C-1.65 3 -3.3 3 -5 3 C-5.061875 3.5775 -5.12375 4.155 -5.1875 4.75 C-6.34689075 7.96062054 -8.17315616 9.18274325 -11 11 C-11.99 10.67 -12.98 10.34 -14 10 C-12.42931636 8.3214068 -10.84298654 6.65744264 -9.25 5 C-7.92742188 3.6078125 -7.92742188 3.6078125 -6.578125 2.1875 C-4 0 -4 0 0 0 Z " fill="#B94438" transform="translate(534,411)"/>
<path d="M0 0 C0.66 0 1.32 0 2 0 C2 0.66 2 1.32 2 2 C1.34 2 0.68 2 0 2 C0 1.34 0 0.68 0 0 Z M-6 3 C-4.35 3 -2.7 3 -1 3 C-3.46153846 9.64615385 -3.46153846 9.64615385 -6.1875 11.4375 C-7.0846875 11.7159375 -7.0846875 11.7159375 -8 12 C-8 11.34 -8 10.68 -8 10 C-8.66 9.67 -9.32 9.34 -10 9 C-9.01 8.67 -8.02 8.34 -7 8 C-6.67 6.35 -6.34 4.7 -6 3 Z " fill="#222D35" transform="translate(484,371)"/>
<path d="M0 0 C1.32 0.66 2.64 1.32 4 2 C4 3.32 4 4.64 4 6 C4.99 6.33 5.98 6.66 7 7 C9 10 9 10 9 13 C5.11980141 11.74155722 3.0588158 10.57583797 1 7 C1 6.01 1 5.02 1 4 C0.34 3.67 -0.32 3.34 -1 3 C-0.67 2.01 -0.34 1.02 0 0 Z " fill="#DA4025" transform="translate(384,359)"/>
<path d="M0 0 C0.33 0.99 0.66 1.98 1 3 C1.99 3 2.98 3 4 3 C2.94901234 5.86632997 2.33137046 6.83006643 -0.4375 8.25 C-3 9 -3 9 -6 9 C-5.34 7.02 -4.68 5.04 -4 3 C-3.01 3 -2.02 3 -1 3 C-0.67 2.01 -0.34 1.02 0 0 Z " fill="#D73F27" transform="translate(515,429)"/>
<path d="M0 0 C0.99 0.33 1.98 0.66 3 1 C3.33 1.99 3.66 2.98 4 4 C2.8203125 6.04296875 2.8203125 6.04296875 1.125 8.1875 C0.57070313 8.90292969 0.01640625 9.61835938 -0.5546875 10.35546875 C-1.03164063 10.89816406 -1.50859375 11.44085938 -2 12 C-2.33 12 -2.66 12 -3 12 C-3 9.36 -3 6.72 -3 4 C-2.01 3.67 -1.02 3.34 0 3 C0 2.01 0 1.02 0 0 Z " fill="#D04631" transform="translate(494,415)"/>
<path d="M0 0 C-0.969375 0.45375 -1.93875 0.9075 -2.9375 1.375 C-6.07079582 2.65786221 -6.07079582 2.65786221 -7 5 C-9.72265625 5.8515625 -9.72265625 5.8515625 -13.0625 6.625 C-14.16722656 6.88539063 -15.27195312 7.14578125 -16.41015625 7.4140625 C-17.26480469 7.60742188 -18.11945313 7.80078125 -19 8 C-16.4361803 5.05471231 -13.52104256 3.51133441 -10.0625 1.75 C-9.02222656 1.20859375 -7.98195313 0.6671875 -6.91015625 0.109375 C-3.93988906 -1.02291478 -2.87689064 -1.19234985 0 0 Z " fill="#C55A52" transform="translate(514,375)"/>
<path d="M0 0 C0.99 0.33 1.98 0.66 3 1 C1.22054913 5.04420651 -1.39529673 8.46078487 -4 12 C-4.66 11.01 -5.32 10.02 -6 9 C-4.625 5.3125 -4.625 5.3125 -3 2 C-2.34 2 -1.68 2 -1 2 C-0.67 1.34 -0.34 0.68 0 0 Z " fill="#D24A30" transform="translate(487,427)"/>
<path d="M0 0 C4.17383395 3.92831431 7.89394426 8.16479983 11 13 C11 13.66 11 14.32 11 15 C9.68 14.67 8.36 14.34 7 14 C7 13.01 7 12.02 7 11 C6.01 10.67 5.02 10.34 4 10 C4 9.34 4 8.68 4 8 C3.01 7.34 2.02 6.68 1 6 C0.3125 2.875 0.3125 2.875 0 0 Z " fill="#C14735" transform="translate(396,372)"/>
<path d="M0 0 C0.71929688 0.47566406 0.71929688 0.47566406 1.453125 0.9609375 C5.16222106 2.47415767 8.77809202 2.46691411 12.75 2.625 C13.93916016 2.68300781 13.93916016 2.68300781 15.15234375 2.7421875 C17.10119416 2.836108 19.05056451 2.91912822 21 3 C21 3.33 21 3.66 21 4 C12.42 4 3.84 4 -5 4 C-3.35 2.68 -1.7 1.36 0 0 Z " fill="#EEDCD3" transform="translate(525,366)"/>
<path d="M0 0 C5.99567279 1.3836168 10.5869807 4.82853544 15 9 C15.33 9.99 15.66 10.98 16 12 C10.9272255 9.55755302 6.98394559 6.98394559 3 3 C2.01 2.67 1.02 2.34 0 2 C0 1.34 0 0.68 0 0 Z " fill="#B74A3E" transform="translate(372,349)"/>
<path d="M0 0 C2.125 0.9375 2.125 0.9375 4 2 C0.93083293 5.06916707 -1.92504029 5.07337066 -6.125 5.1875 C-10 5 -10 5 -12 3 C-11.30132813 2.86722656 -10.60265625 2.73445313 -9.8828125 2.59765625 C-8.51769531 2.33275391 -8.51769531 2.33275391 -7.125 2.0625 C-6.22007812 1.88847656 -5.31515625 1.71445312 -4.3828125 1.53515625 C-2.00043683 1.10036299 -2.00043683 1.10036299 0 0 Z " fill="#C6635B" transform="translate(565,471)"/>
<path d="M0 0 C0.33 0.66 0.66 1.32 1 2 C0.06421005 4.35981813 -0.93347808 6.69631264 -2 9 C-2.66 9 -3.32 9 -4 9 C-4.2475 9.639375 -4.495 10.27875 -4.75 10.9375 C-6 13 -6 13 -8.125 13.75 C-9.053125 13.87375 -9.053125 13.87375 -10 14 C-7.21612291 8.92351825 -3.59170584 4.5166931 0 0 Z " fill="#C5554B" transform="translate(510,432)"/>
<path d="M0 0 C1.06863281 0.01804687 2.13726562 0.03609375 3.23828125 0.0546875 C4.04652344 0.07789063 4.85476563 0.10109375 5.6875 0.125 C5.6875 0.455 5.6875 0.785 5.6875 1.125 C2.7175 1.125 -0.2525 1.125 -3.3125 1.125 C-3.3125 1.785 -3.3125 2.445 -3.3125 3.125 C-5.9525 3.455 -8.5925 3.785 -11.3125 4.125 C-11.3125 4.785 -11.3125 5.445 -11.3125 6.125 C-12.9625 6.455 -14.6125 6.785 -16.3125 7.125 C-11.1704744 1.54222935 -7.58176386 -0.16663217 0 0 Z " fill="#BC5348" transform="translate(365.3125,347.875)"/>
<path d="M0 0 C0.33 0.66 0.66 1.32 1 2 C-0.40195539 5.60047635 -2.75572717 8.63112084 -5 11.75 C-5.70125 12.73484375 -6.4025 13.7196875 -7.125 14.734375 C-7.74375 15.48203125 -8.3625 16.2296875 -9 17 C-9.66 17 -10.32 17 -11 17 C-9.24933204 13.11390189 -6.81675994 9.72187742 -4.375 6.25 C-3.95476562 5.64800781 -3.53453125 5.04601562 -3.1015625 4.42578125 C-2.07006863 2.94886957 -1.03535421 1.47420806 0 0 Z " fill="#F3E2D9" transform="translate(474,450)"/>
<path d="M0 0 C3.9252025 3.70090521 6.94580156 7.54959656 10 12 C9.34 12.66 8.68 13.32 8 14 C6.33333333 12.33333333 4.66666667 10.66666667 3 9 C3 8.01 3 7.02 3 6 C2.01 6 1.02 6 0 6 C0 4.02 0 2.04 0 0 Z " fill="#CA5242" transform="translate(431,420)"/>
<path d="M0 0 C1 3 1 3 1 5 C1.66 5.33 2.32 5.66 3 6 C0 8 0 8 -4 8 C-4.33 8.66 -4.66 9.32 -5 10 C-5.99 9.67 -6.98 9.34 -8 9 C-5.36 6.03 -2.72 3.06 0 0 Z " fill="#CD4431" transform="translate(519,422)"/>
<path d="M0 0 C1 2 1 2 0.3515625 4.32421875 C-1.22782824 7.45104724 -3.09925785 9.39500395 -5.625 11.8125 C-6.44226563 12.60269531 -7.25953125 13.39289063 -8.1015625 14.20703125 C-8.72804688 14.79871094 -9.35453125 15.39039063 -10 16 C-10 11.7349984 -7.55526586 9.49967621 -5 6.3125 C-4.52304687 5.70599609 -4.04609375 5.09949219 -3.5546875 4.47460938 C-2.37623606 2.97797604 -1.18894812 1.48830827 0 0 Z " fill="#3B3D40" transform="translate(467,386)"/>
<path d="M0 0 C2 1 4 2 6 3 C6 3.99 6 4.98 6 6 C7.32 6 8.64 6 10 6 C9.34 7.32 8.68 8.64 8 10 C7.34 10 6.68 10 6 10 C4.4921875 8.3203125 4.4921875 8.3203125 2.875 6.125 C2.33617187 5.40570313 1.79734375 4.68640625 1.2421875 3.9453125 C0 2 0 2 0 0 Z " fill="#C65246" transform="translate(431,489)"/>
<path d="M0 0 C-4.89839001 3.89359206 -8.7950962 4.7242265 -15 5 C-12.86699672 2.63442627 -11.04050601 1.37032472 -8.0625 0.25 C-7.39347656 -0.01296875 -6.72445312 -0.2759375 -6.03515625 -0.546875 C-3.68352509 -1.07046274 -2.26382477 -0.74954377 0 0 Z " fill="#F8E3D9" transform="translate(535,394)"/>
<path d="M0 0 C1.875 0.3125 1.875 0.3125 4 1 C4.66 1.99 5.32 2.98 6 4 C6.66 4.33 7.32 4.66 8 5 C8 7.31 8 9.62 8 12 C6.66666667 10.33333333 5.33333333 8.66666667 4 7 C3.2575 6.113125 2.515 5.22625 1.75 4.3125 C0 2 0 2 0 0 Z " fill="#CE4F3C" transform="translate(393,436)"/>
<path d="M0 0 C2.4375 0.8125 2.4375 0.8125 5 2 C5.33 2.99 5.66 3.98 6 5 C6.66 5.33 7.32 5.66 8 6 C8.625 9.0625 8.625 9.0625 9 12 C4.99027798 8.32442148 2.54664585 4.81033104 0 0 Z " fill="#BF5A48" transform="translate(401,448)"/>
<path d="M0 0 C0.33 0.66 0.66 1.32 1 2 C-0.77324262 6.19978515 -3.05004453 9.54143152 -6 13 C-6.66 12.67 -7.32 12.34 -8 12 C-6.59023295 8.96147295 -4.91129772 6.4060405 -2.875 3.75 C-2.06675781 2.69039063 -2.06675781 2.69039063 -1.2421875 1.609375 C-0.83226562 1.07828125 -0.42234375 0.5471875 0 0 Z " fill="#EEE4DA" transform="translate(501,414)"/>
<path d="M0 0 C1.32 0 2.64 0 4 0 C4 0.99 4 1.98 4 3 C4.639375 3.268125 5.27875 3.53625 5.9375 3.8125 C8 5 8 5 9 8 C9.66 8 10.32 8 11 8 C10.67 8.99 10.34 9.98 10 11 C8.32742645 9.5484451 6.66208242 8.08855591 5 6.625 C3.6078125 5.40683594 3.6078125 5.40683594 2.1875 4.1640625 C1.465625 3.44992187 0.74375 2.73578125 0 2 C0 1.34 0 0.68 0 0 Z " fill="#CE5950" transform="translate(567,397)"/>
<path d="M0 0 C0.66 0.33 1.32 0.66 2 1 C0.92598892 3.91517292 0.22189824 5.77810176 -2 8 C-3.32 8 -4.64 8 -6 8 C-5.65120368 4.74456771 -4.97866739 3.98126893 -2.4375 1.75 C-1.633125 1.1725 -0.82875 0.595 0 0 Z " fill="#C73E30" transform="translate(351,354)"/>
<path d="M0 0 C0.33 0 0.66 0 1 0 C0.94004678 1.79260132 0.8512759 3.58425795 0.75 5.375 C0.70359375 6.37273438 0.6571875 7.37046875 0.609375 8.3984375 C0 11 0 11 -1.859375 12.4140625 C-4 13 -4 13 -7 12 C-6.401875 11.505 -5.80375 11.01 -5.1875 10.5 C-2.30348139 7.20397873 -1.38128458 4.14385374 0 0 Z " fill="#F7F0E6" transform="translate(386,541)"/>
<path d="M0 0 C0.33 0 0.66 0 1 0 C1.04898437 1.22976563 1.09796875 2.45953125 1.1484375 3.7265625 C1.22351029 5.35939566 1.29905615 6.99220712 1.375 8.625 C1.4059375 9.43324219 1.436875 10.24148438 1.46875 11.07421875 C1.6952946 15.71838314 2.2592668 19.62693856 4 24 C3.01 24 2.02 24 1 24 C-0.29235715 19.08497242 -0.11135517 14.22709898 -0.0625 9.1875 C-0.05798828 8.30384766 -0.05347656 7.42019531 -0.04882812 6.50976562 C-0.03709866 4.33981441 -0.01916495 2.16989828 0 0 Z " fill="#F8EDE1" transform="translate(341,524)"/>
<path d="M0 0 C-1.1196986 1.00593243 -2.2459412 2.0045849 -3.375 3 C-4.00148438 3.556875 -4.62796875 4.11375 -5.2734375 4.6875 C-7 6 -7 6 -9 6 C-9.33 4.35 -9.66 2.7 -10 1 C-8.66666667 0.66666667 -7.33333333 0.33333333 -6 0 C-5.29875 -0.20625 -4.5975 -0.4125 -3.875 -0.625 C-2 -1 -2 -1 0 0 Z " fill="#F3EFE9" transform="translate(597,473)"/>
<path d="M0 0 C0.66 0.33 1.32 0.66 2 1 C0.22054913 5.04420651 -2.39529673 8.46078487 -5 12 C-5.33 11.34 -5.66 10.68 -6 10 C-6.66 9.67 -7.32 9.34 -8 9 C-6.68 9 -5.36 9 -4 9 C-4 7.02 -4 5.04 -4 3 C-2.68 3 -1.36 3 0 3 C0 2.01 0 1.02 0 0 Z " fill="#D04F3A" transform="translate(456,471)"/>
<path d="M0 0 C4.95 0 9.9 0 15 0 C11.88529393 2.07647071 10.55611254 2.3624111 6.9375 2.6875 C5.62072266 2.81705078 5.62072266 2.81705078 4.27734375 2.94921875 C2 3 2 3 0 2 C0 1.34 0 0.68 0 0 Z " fill="#EAC3BD" transform="translate(548,472)"/>
<path d="M0 0 C0.66 0.99 1.32 1.98 2 3 C-2.455 6.96 -2.455 6.96 -7 11 C-7.66 10.67 -8.32 10.34 -9 10 C-6.03 6.7 -3.06 3.4 0 0 Z " fill="#BC665C" transform="translate(597,464)"/>
<path d="M0 0 C0.99 0.33 1.98 0.66 3 1 C2 3 2 3 1 5 C0.505 6.051875 0.01 7.10375 -0.5 8.1875 C-2 11 -2 11 -4 12 C-3.52494322 10.18641846 -3.04483958 8.37415821 -2.5625 6.5625 C-2.29566406 5.55316406 -2.02882813 4.54382813 -1.75390625 3.50390625 C-1 1 -1 1 0 0 Z " fill="#3E444B" transform="translate(626,639)"/>
<path d="M0 0 C1 3 1 3 0.1875 5.125 C-1 7 -1 7 -3 8 C-3 9.98 -3 11.96 -3 14 C-3.66 13.67 -4.32 13.34 -5 13 C-5 12.34 -5 11.68 -5 11 C-5.66 10.67 -6.32 10.34 -7 10 C-3.535 5.05 -3.535 5.05 0 0 Z " fill="#EEE8DC" transform="translate(482,439)"/>
<path d="M0 0 C3.92488093 3.70060202 7.02215543 7.4906925 10 12 C10 12.66 10 13.32 10 14 C9.34 14 8.68 14 8 14 C6.98133771 12.34467377 5.98189187 10.67739862 5 9 C4.34 8.67 3.68 8.34 3 8 C0 2.57692308 0 2.57692308 0 0 Z " fill="#C15242" transform="translate(580,388)"/>
<path d="M0 0 C-0.61454696 3.99455527 -2.70646737 6.74466336 -5 10 C-5.144375 9.38125 -5.28875 8.7625 -5.4375 8.125 C-5.93152225 5.96741678 -5.93152225 5.96741678 -7 4 C-5.68 4 -4.36 4 -3 4 C-3 3.34 -3 2.68 -3 2 C-3.66 1.67 -4.32 1.34 -5 1 C-3 0 -3 0 0 0 Z " fill="#CF533B" transform="translate(468,457)"/>
<path d="M0 0 C0.66 0 1.32 0 2 0 C0.74194623 4.50802601 -0.90407165 7.4912812 -4 11 C-4.625 8.625 -4.625 8.625 -5 6 C-4.34 5.34 -3.68 4.68 -3 4 C-2.01 4 -1.02 4 0 4 C0 2.68 0 1.36 0 0 Z " fill="#CF5747" transform="translate(590,449)"/>
<path d="M0 0 C0.33 0.66 0.66 1.32 1 2 C1.66 2.33 2.32 2.66 3 3 C0.69 6.3 -1.62 9.6 -4 13 C-5 9 -5 9 -4 6 C-3.01 6 -2.02 6 -1 6 C-0.67 4.02 -0.34 2.04 0 0 Z " fill="#CA5245" transform="translate(475,443)"/>
<path d="M0 0 C0.99 0 1.98 0 3 0 C1.84826645 2.46800047 0.95216435 4.04783565 -1 6 C-1.99 6 -2.98 6 -4 6 C-4.99 7.485 -4.99 7.485 -6 9 C-6.66 8.67 -7.32 8.34 -8 8 C-6.1875 5.5 -6.1875 5.5 -4 3 C-3.01 3 -2.02 3 -1 3 C-0.67 2.01 -0.34 1.02 0 0 Z " fill="#C84938" transform="translate(460,414)"/>
<path d="M0 0 C5.28137429 0.51525603 8.57221156 2.25477117 13 5 C10.43640146 6.28179927 9.28041467 5.87670752 6.5 5.3125 C5.30890625 5.09013672 5.30890625 5.09013672 4.09375 4.86328125 C2 4 2 4 0.71875 1.91796875 C0.4815625 1.28503906 0.244375 0.65210938 0 0 Z " fill="#CE4D3F" transform="translate(556,373)"/>
<path d="M0 0 C2.93200474 2.85276137 5.64315404 5.65079784 8 9 C7.67 9.66 7.34 10.32 7 11 C5.68 10.34 4.36 9.68 3 9 C3 7.68 3 6.36 3 5 C1.68 4.67 0.36 4.34 -1 4 C-0.67 2.68 -0.34 1.36 0 0 Z " fill="#C34F38" transform="translate(388,361)"/>
<path d="M0 0 C2 3 2 3 2 5 C2.66 5.33 3.32 5.66 4 6 C2.35 7.65 0.7 9.3 -1 11 C-1.33 10.01 -1.66 9.02 -2 8 C-1.01 7.67 -0.02 7.34 1 7 C0.01 5.68 -0.98 4.36 -2 3 C-1.34 2.01 -0.68 1.02 0 0 Z " fill="#C7604E" transform="translate(580,457)"/>
<path d="M0 0 C0.97608217 2.92824652 1.08226668 4.95613276 1 8 C0.34 7.67 -0.32 7.34 -1 7 C-2.98 8.32 -4.96 9.64 -7 11 C-5.22054913 6.95579349 -2.60470327 3.53921513 0 0 Z " fill="#C5584A" transform="translate(499,446)"/>
<path d="M0 0 C0.66 0.33 1.32 0.66 2 1 C0.61299727 3.77400546 -1.34261714 4.42972831 -4 6 C-5.68477344 7.31037934 -7.35648543 8.63823078 -9 10 C-9.66 9.67 -10.32 9.34 -11 9 C-9.54405245 7.68485396 -8.08516421 6.37296283 -6.625 5.0625 C-5.81289063 4.33160156 -5.00078125 3.60070312 -4.1640625 2.84765625 C-2 1 -2 1 0 0 Z " fill="#F3DED3" transform="translate(518,399)"/>
<path d="M0 0 C1.32 0.33 2.64 0.66 4 1 C4 1.66 4 2.32 4 3 C4.99 3 5.98 3 7 3 C7.66 4.32 8.32 5.64 9 7 C7.35 7 5.7 7 4 7 C2.02 3.535 2.02 3.535 0 0 Z " fill="#C7503D" transform="translate(411,462)"/>
<path d="M0 0 C-0.125 1.8125 -0.125 1.8125 -1 4 C-4.0625 5.75 -4.0625 5.75 -7 7 C-6.67 5.02 -6.34 3.04 -6 1 C-3.92446352 0.4465236 -2.15634036 0 0 0 Z " fill="#D44229" transform="translate(479,399)"/>
<path d="M0 0 C0 0.66 0 1.32 0 2 C-5.445 4.475 -5.445 4.475 -11 7 C-11 6.01 -11 5.02 -11 4 C-4.5 0 -4.5 0 0 0 Z " fill="#EFEBE8" transform="translate(508,374)"/>
<path d="M0 0 C-0.33 1.32 -0.66 2.64 -1 4 C-1.99 4 -2.98 4 -4 4 C-4 4.66 -4 5.32 -4 6 C-5.98 6.33 -7.96 6.66 -10 7 C-3.18421053 0 -3.18421053 0 0 0 Z " fill="#C25342" transform="translate(495,383)"/>
<path d="M0 0 C2.89932357 2.39509338 3.50168276 4.31245243 4 8 C1.37812506 6.95125002 0.20628639 6.35068687 -1.25 3.875 C-1.4975 3.25625 -1.745 2.6375 -2 2 C-1.34 1.34 -0.68 0.68 0 0 Z " fill="#283440" transform="translate(830,697)"/>
<path d="M0 0 C0.99 0.33 1.98 0.66 3 1 C0.69 4.3 -1.62 7.6 -4 11 C-4.33 9.68 -4.66 8.36 -5 7 C-4.34 7 -3.68 7 -3 7 C-2.87625 6.401875 -2.7525 5.80375 -2.625 5.1875 C-2 3 -2 3 0 0 Z " fill="#F1EAE5" transform="translate(496,446)"/>
<path d="M0 0 C0 0.66 0 1.32 0 2 C-3.96 2 -7.92 2 -12 2 C-4.86956522 -1.56521739 -4.86956522 -1.56521739 0 0 Z " fill="#37414B" transform="translate(694,711)"/>
<path d="M0 0 C2.67927341 4.01891012 2.15601248 6.24161923 2 11 C0.68 10.34 -0.64 9.68 -2 9 C-1.34 6.03 -0.68 3.06 0 0 Z " fill="#263142" transform="translate(1007,684)"/>
<path d="M0 0 C0.99 0.33 1.98 0.66 3 1 C3 1.66 3 2.32 3 3 C2.01 3.495 2.01 3.495 1 4 C0.67 4.99 0.34 5.98 0 7 C-0.99 7 -1.98 7 -3 7 C-1.125 1.125 -1.125 1.125 0 0 Z " fill="#BC4A33" transform="translate(578,461)"/>
<path d="M0 0 C0.66 1.32 1.32 2.64 2 4 C-0.97 6.475 -0.97 6.475 -4 9 C-3.35455571 5.51460083 -1.89865603 2.97180943 0 0 Z " fill="#F3F4EF" transform="translate(464,403)"/>
<path d="M0 0 C0.66 0.66 1.32 1.32 2 2 C-0.64 4.31 -3.28 6.62 -6 9 C-6 5.06368636 -4.57142871 3.87394974 -2 1 C-1.34 0.67 -0.68 0.34 0 0 Z " fill="#D4DBDF" transform="translate(412,655)"/>
<path d="M0 0 C0.66 0.33 1.32 0.66 2 1 C0.74874616 4.75376152 -0.5652404 5.24073289 -4 7 C-4.66 7 -5.32 7 -6 7 C-4.77065985 3.31197956 -3.06140622 2.27643027 0 0 Z " fill="#414859" transform="translate(745,643)"/>
<path d="M0 0 C3.96 1.98 3.96 1.98 8 4 C7.01 4.495 7.01 4.495 6 5 C6 5.66 6 6.32 6 7 C5.01 7 4.02 7 3 7 C3 5.68 3 4.36 3 3 C2.01 2.67 1.02 2.34 0 2 C0 1.34 0 0.68 0 0 Z " fill="#F5EBE9" transform="translate(350,554)"/>
<path d="M0 0 C5.57142857 5.14285714 5.57142857 5.14285714 6 9 C4.68 8.67 3.36 8.34 2 8 C1.34 5.36 0.68 2.72 0 0 Z " fill="#C35647" transform="translate(411,392)"/>
<path d="M0 0 C5.49152542 0.61016949 5.49152542 0.61016949 7.875 2.4375 C9 4 9 4 9 6 C5.06326356 4.68775452 2.77280706 3.08089673 0 0 Z " fill="#C8564B" transform="translate(349,552)"/>
<path d="M0 0 C0 3 0 3 -1.875 5.1875 C-4 7 -4 7 -6 7 C-6.33 6.01 -6.66 5.02 -7 4 C-5.68 4 -4.36 4 -3 4 C-3 3.01 -3 2.02 -3 1 C-2.01 0.67 -1.02 0.34 0 0 Z " fill="#CF6453" transform="translate(383,547)"/>
<path d="M0 0 C0.66 0.33 1.32 0.66 2 1 C0.375 3.0625 0.375 3.0625 -2 5 C-5.25 4.75 -5.25 4.75 -8 4 C-6.66666667 3.33333333 -5.33333333 2.66666667 -4 2 C-3.29875 1.608125 -2.5975 1.21625 -1.875 0.8125 C-1.25625 0.544375 -0.6375 0.27625 0 0 Z " fill="#F3E0D1" transform="translate(571,472)"/>
<path d="M0 0 C0.33 1.32 0.66 2.64 1 4 C0.34 4 -0.32 4 -1 4 C-1 5.65 -1 7.3 -1 9 C-2.32 8.34 -3.64 7.68 -5 7 C-3.35 4.69 -1.7 2.38 0 0 Z " fill="#F5DFD7" transform="translate(590,454)"/>
<path d="M0 0 C0.33 0.99 0.66 1.98 1 3 C1.99 3.33 2.98 3.66 4 4 C3.67 4.66 3.34 5.32 3 6 C1.125 5.75 1.125 5.75 -1 5 C-2.25 2.9375 -2.25 2.9375 -3 1 C-2.01 0.67 -1.02 0.34 0 0 Z " fill="#F3EEE4" transform="translate(441,427)"/>
<path d="M0 0 C1.32 0.66 2.64 1.32 4 2 C2.02 4.31 0.04 6.62 -2 9 C-2.33 8.01 -2.66 7.02 -3 6 C-2.34 6 -1.68 6 -1 6 C-0.67 4.02 -0.34 2.04 0 0 Z " fill="#F6F0EB" transform="translate(448,421)"/>
<path d="M0 0 C0.33 0.99 0.66 1.98 1 3 C-0.8125 5.6875 -0.8125 5.6875 -3 8 C-3.66 8 -4.32 8 -5 8 C-4.34 6.02 -3.68 4.04 -3 2 C-2.01 2 -1.02 2 0 2 C0 1.34 0 0.68 0 0 Z " fill="#D73F26" transform="translate(469,406)"/>
<path d="M0 0 C0.66 0.33 1.32 0.66 2 1 C1.67 2.98 1.34 4.96 1 7 C0.34 7 -0.32 7 -1 7 C-1.33 5.02 -1.66 3.04 -2 1 C-1.34 0.67 -0.68 0.34 0 0 Z " fill="#D24930" transform="translate(580,404)"/>
<path d="M0 0 C1.32 0.33 2.64 0.66 4 1 C4.33 2.65 4.66 4.3 5 6 C4.01 6 3.02 6 2 6 C1.34 4.02 0.68 2.04 0 0 Z " fill="#D83A1E" transform="translate(407,391)"/>
<path d="M0 0 C1.32 0 2.64 0 4 0 C4 0.66 4 1.32 4 2 C2.03852126 3.38938077 0.03833424 4.7260411 -2 6 C-2.66 5.67 -3.32 5.34 -4 5 C-2.25 2.5 -2.25 2.5 0 0 Z " fill="#38424E" transform="translate(491,354)"/>
<path d="M0 0 C1.32 0.33 2.64 0.66 4 1 C3.38125 1.598125 2.7625 2.19625 2.125 2.8125 C-0.13676954 5.00811144 -0.13676954 5.00811144 -2 8 C-2.66 8 -3.32 8 -4 8 C-2.87548273 5.0280615 -1.77706209 2.66559313 0 0 Z " fill="#DD3C25" transform="translate(354,352)"/>
<path d="M0 0 C0.99 0 1.98 0 3 0 C3.33 0.99 3.66 1.98 4 3 C3.01 3.495 3.01 3.495 2 4 C0.86649466 6.01669827 0.86649466 6.01669827 0 8 C-0.98120464 4.94736336 -0.98120464 3.05263664 0 0 Z " fill="#3B464E" transform="translate(822,660)"/>
<path d="M0 0 C1.32 0.99 2.64 1.98 4 3 C2.68 4.65 1.36 6.3 0 8 C-0.66 6.02 -1.32 4.04 -2 2 C-1.34 2 -0.68 2 0 2 C0 1.34 0 0.68 0 0 Z " fill="#CE4E37" transform="translate(478,437)"/>
<path d="M0 0 C0.75 1.75 0.75 1.75 1 4 C-0.9375 6.25 -0.9375 6.25 -3 8 C-3.75 6.25 -3.75 6.25 -4 4 C-2.0625 1.75 -2.0625 1.75 0 0 Z " fill="#D33D25" transform="translate(456,419)"/>
<path d="M0 0 C0.66 0 1.32 0 2 0 C2.33 1.32 2.66 2.64 3 4 C0.36 4.66 -2.28 5.32 -5 6 C-3.38405168 3.95880212 -1.7143618 1.95927063 0 0 Z " fill="#C55548" transform="translate(483,390)"/>
<path d="M0 0 C2 2 2 2 2 4 C2.99 4.66 3.98 5.32 5 6 C4.67 6.99 4.34 7.98 4 9 C3.67 8.34 3.34 7.68 3 7 C2.01 6.67 1.02 6.34 0 6 C-0.38218767 4.34385343 -0.71395102 2.67542976 -1 1 C-0.67 0.67 -0.34 0.34 0 0 Z " fill="#D74023" transform="translate(396,374)"/>
<path d="M0 0 C2 3 2 3 1.625 5.1875 C1.41875 5.785625 1.2125 6.38375 1 7 C0.34 7 -0.32 7 -1 7 C-1.33 7.99 -1.66 8.98 -2 10 C-1.125 2.25 -1.125 2.25 0 0 Z " fill="#4B545C" transform="translate(389,658)"/>
<path d="M0 0 C2.31 0.33 4.62 0.66 7 1 C6.67 1.99 6.34 2.98 6 4 C4.02 3.34 2.04 2.68 0 2 C0 1.34 0 0.68 0 0 Z " fill="#2F333B" transform="translate(995,653)"/>
<path d="M0 0 C0.99 0 1.98 0 3 0 C1.75023244 3.65316671 1.32901247 4.78065836 -2 7 C-2.125 4.625 -2.125 4.625 -2 2 C-1.34 1.34 -0.68 0.68 0 0 Z " fill="#C95A4B" transform="translate(529,547)"/>
<path d="M0 0 C3.93846154 4.30769231 3.93846154 4.30769231 4.25 7.8125 C4.1675 8.534375 4.085 9.25625 4 10 C1.16625119 6.79663178 0.4794463 4.21912747 0 0 Z " fill="#C35241" transform="translate(492,540)"/>
<path d="M0 0 C0.66 0.33 1.32 0.66 2 1 C-2.625 6.875 -2.625 6.875 -6 8 C-4.55746343 4.63408134 -2.66735273 2.48952921 0 0 Z " fill="#3F484F" transform="translate(565,520)"/>
<path d="M0 0 C0.99 0.33 1.98 0.66 3 1 C1.73058503 4.91402949 0.48832306 6.79072873 -3 9 C-2.67 7.68 -2.34 6.36 -2 5 C-1.34 5 -0.68 5 0 5 C0 3.35 0 1.7 0 0 Z " fill="#C65141" transform="translate(447,482)"/>
<path d="M0 0 C1.70884005 1.62339805 3.37446717 3.29319053 5 5 C5 5.66 5 6.32 5 7 C3.35 7 1.7 7 0 7 C0 4.69 0 2.38 0 0 Z " fill="#C44D3F" transform="translate(426,413)"/>
<path d="M0 0 C2.6875 -0.3125 2.6875 -0.3125 5 0 C3.74821404 2.50357192 2.00018842 4.06433379 0 6 C-0.99 5.67 -1.98 5.34 -3 5 C-1.8125 2.5 -1.8125 2.5 0 0 Z " fill="#CB3821" transform="translate(529,414)"/>
<path d="M0 0 C1.485 0.99 1.485 0.99 3 2 C3 2.66 3 3.32 3 4 C3.66 4 4.32 4 5 4 C4.67 4.99 4.34 5.98 4 7 C2.35 6.01 0.7 5.02 -1 4 C-0.67 2.68 -0.34 1.36 0 0 Z " fill="#D83D23" transform="translate(421,409)"/>
<path d="M0 0 C1.98 0.66 3.96 1.32 6 2 C6 2.99 6 3.98 6 5 C4.125 4.75 4.125 4.75 2 4 C0.75 1.9375 0.75 1.9375 0 0 Z " fill="#EEE2DF" transform="translate(557,394)"/>
<path d="M0 0 C0.33 0.66 0.66 1.32 1 2 C1.66 2.33 2.32 2.66 3 3 C-0.75 6 -0.75 6 -3 6 C-2.42655063 3.13275314 -2.1385485 2.1385485 0 0 Z " fill="#F1E9E6" transform="translate(486,384)"/>
<path d="M0 0 C3.63 0 7.26 0 11 0 C11.33 0.99 11.66 1.98 12 3 C6.06 2.01 6.06 2.01 0 1 C0 0.67 0 0.34 0 0 Z " fill="#F0DED5" transform="translate(364,347)"/>
<path d="M0 0 C0.66 0.99 1.32 1.98 2 3 C1.01 3.99 0.02 4.98 -1 6 C-1.99 5.67 -2.98 5.34 -4 5 C-2.68 3.35 -1.36 1.7 0 0 Z " fill="#36424A" transform="translate(885,701)"/>
<path d="M0 0 C0.99 0.33 1.98 0.66 3 1 C1.47793991 3.62901288 0.15634036 5.84365964 -2 8 C-2.125 5.125 -2.125 5.125 -2 2 C-1.34 1.34 -0.68 0.68 0 0 Z " fill="#2F3341" transform="translate(354,609)"/>
<path d="M0 0 C0.66 0.99 1.32 1.98 2 3 C1.01 3.99 0.02 4.98 -1 6 C-1.99 5.67 -2.98 5.34 -4 5 C-2.68 3.35 -1.36 1.7 0 0 Z " fill="#F1E5DB" transform="translate(444,492)"/>
<path d="M0 0 C0.33 0 0.66 0 1 0 C1 1.65 1 3.3 1 5 C-0.65 5.66 -2.3 6.32 -4 7 C-2.68 4.69 -1.36 2.38 0 0 Z " fill="#F3E4D3" transform="translate(604,459)"/>
<path d="M0 0 C0.99 0.33 1.98 0.66 3 1 C1.70700306 3.88437779 0.34058637 5.87219421 -2 8 C-2.33 7.01 -2.66 6.02 -3 5 C-2.01 4.67 -1.02 4.34 0 4 C0 2.68 0 1.36 0 0 Z " fill="#CC513D" transform="translate(487,427)"/>
<path d="M0 0 C0.6875 1.8125 0.6875 1.8125 1 4 C-0.4375 5.75 -0.4375 5.75 -2 7 C-2.99 6.67 -3.98 6.34 -5 6 C-3.35 4.02 -1.7 2.04 0 0 Z " fill="#BD5B51" transform="translate(516,425)"/>
<path d="M0 0 C0.99 0 1.98 0 3 0 C3 1.98 3 3.96 3 6 C2.01 6 1.02 6 0 6 C0 4.02 0 2.04 0 0 Z " fill="#DD4122" transform="translate(428,420)"/>
<path d="M0 0 C2.40072955 2.88087546 4.47291037 5.56404834 6 9 C5.34 9 4.68 9 4 9 C0.88002198 5.69649386 0 4.67590167 0 0 Z " fill="#B75949" transform="translate(420,404)"/>
<path d="M0 0 C1.65 0.33 3.3 0.66 5 1 C5 1.99 5 2.98 5 4 C2.03 3.505 2.03 3.505 -1 3 C-0.67 2.01 -0.34 1.02 0 0 Z " fill="#F4EDE2" transform="translate(547,367)"/>
</svg>
